<?xml version="1.0" encoding="UTF-8"?>
<svg version="1.1" xmlns="http://www.w3.org/2000/svg" width="360" height="360">
<path d="M0 0 C118.8 0 237.6 0 360 0 C360 118.8 360 237.6 360 360 C241.2 360 122.4 360 0 360 C0 241.2 0 122.4 0 0 Z " fill="#242C88" transform="translate(0,0)"/>
<path d="M0 0 C118.8 0 237.6 0 360 0 C360 118.8 360 237.6 360 360 C241.2 360 122.4 360 0 360 C0 241.2 0 122.4 0 0 Z M28 46 C27.89975175 49.04436082 27.86562195 52.06611473 27.87301636 55.11096191 C27.87145637 56.07891268 27.86989638 57.04686345 27.86828911 58.04414606 C27.86427461 61.31395103 27.86747049 64.58371024 27.87060547 67.85351562 C27.86925163 70.18698657 27.86747179 72.52045729 27.86529541 74.85392761 C27.86071904 81.21117611 27.86251147 87.56840847 27.8656745 93.92565727 C27.86794174 99.89060152 27.86621566 105.85554374 27.8647473 111.82048804 C27.86189241 124.35470441 27.86517967 136.88891349 27.87054767 149.42312866 C27.87501571 160.18947876 27.87423978 170.95581807 27.86962891 181.72216797 C27.8642833 194.21003761 27.8621671 206.69790084 27.86524117 219.18577147 C27.86680443 225.80165078 27.86699639 232.41752265 27.86370468 239.03340149 C27.86082723 245.25162309 27.86279933 251.46982422 27.86859894 257.68804359 C27.86992722 259.97745543 27.86953128 262.26686897 27.86733627 264.55628014 C27.86462742 267.66722313 27.86800264 270.77809941 27.87301636 273.88903809 C27.87078564 274.80759787 27.86855491 275.72615766 27.86625659 276.67255259 C27.47838372 280.65356727 27.47838372 280.65356727 29 284 C30.71865409 284.0935919 32.44115744 284.11744611 34.16235352 284.11352539 C35.81395226 284.11341209 35.81395226 284.11341209 37.49891663 284.11329651 C38.6968132 284.10813522 39.89470978 284.10297394 41.12890625 284.09765625 C42.34827377 284.0962413 43.5676413 284.09482635 44.82395935 284.09336853 C48.7368307 284.08774967 52.64964581 284.07519396 56.5625 284.0625 C59.20768147 284.05748743 61.85286383 284.0529241 64.49804688 284.04882812 C70.99871726 284.03777411 77.49935461 284.02101764 84 284 C83.98952637 284.95890137 83.97905273 285.91780273 83.96826172 286.90576172 C83.93210672 290.45780719 83.90911607 294.00983634 83.89013672 297.56201172 C83.88006882 299.10045098 83.86641354 300.63887107 83.84912109 302.17724609 C83.82490683 304.38644133 83.81352509 306.59538395 83.8046875 308.8046875 C83.79436493 309.49432587 83.78404236 310.18396423 83.77340698 310.89450073 C83.77300522 312.59800906 83.87808974 314.30085943 84 316 C86.48770396 318.48770396 87.9366198 318.23983924 91.33108479 318.26282471 C92.07942095 318.25768115 92.82775712 318.25253759 93.59877014 318.24723816 C94.39198258 318.24965257 95.18519503 318.25206699 96.00244421 318.25455457 C98.6749703 318.26021506 101.34725984 318.25151085 104.01977539 318.24291992 C105.92975428 318.24399221 107.83973286 318.2459301 109.74971008 318.24867249 C114.94787206 318.25353211 120.14594859 318.2458515 125.34410024 318.23571944 C130.77289186 318.22695829 136.20168065 318.228696 141.63047791 318.2290802 C150.74756303 318.22814275 159.86461494 318.21944751 168.98168945 318.20581055 C179.53812371 318.19007947 190.09452157 318.18481256 200.6509667 318.1855461 C210.78721312 318.18615544 220.92344763 318.18105891 231.05969048 318.17275429 C235.38225841 318.16921423 239.70482212 318.16739001 244.02739143 318.16686058 C249.11214096 318.16585953 254.19685967 318.15978253 259.28159904 318.14969444 C261.15335781 318.14676188 263.02512013 318.14554559 264.8968811 318.14612198 C267.44069185 318.14660908 269.98441491 318.14099263 272.5282135 318.13371277 C273.27878039 318.13526137 274.02934728 318.13680997 274.80265862 318.1384055 C278.18801024 318.42273756 278.18801024 318.42273756 281 317 C280.99483718 315.30371012 280.91558416 313.60762056 280.80830383 311.91471863 C280.7428131 310.81059883 280.67732237 309.70647903 280.60984707 308.56890106 C280.53403943 307.34499916 280.45823179 306.12109726 280.38012695 304.86010742 C279.35149906 286.64475307 278.69298824 268.42787389 278.3125 250.1875 C278.29524447 249.37777615 278.27798894 248.56805229 278.26021051 247.73379135 C276.77227273 174.7810264 276.77227273 174.7810264 297.01268005 152.3367157 C307.00455522 141.95160056 319.13341093 133.31852805 331.792099 126.51306152 C334.22302168 124.84716456 335.00431479 123.73844728 336 121 C336.50141216 118.46032289 336.50141216 118.46032289 336.5625 115.75 C336.62566406 114.85796875 336.68882812 113.9659375 336.75390625 113.046875 C335.5664965 108.24801694 332.39391867 105.47831383 329 102 C328.23824463 101.20706543 327.47648926 100.41413086 326.69165039 99.59716797 C324.2324833 97.06351066 321.74570909 94.56013777 319.25 92.0625 C318.40050781 91.20076172 317.55101562 90.33902344 316.67578125 89.45117188 C315.45181641 88.22430664 315.45181641 88.22430664 314.203125 86.97265625 C313.09952637 85.86289429 313.09952637 85.86289429 311.97363281 84.73071289 C308.43232697 81.62528029 304.75740692 81.64423828 300.2578125 81.73828125 C292.64091112 82.62120926 286.98008909 90.84275359 282 96 C281.93941406 94.85660156 281.87882813 93.71320313 281.81640625 92.53515625 C281.73201572 91.04425695 281.64736698 89.55337225 281.5625 88.0625 C281.52318359 87.30775391 281.48386719 86.55300781 281.44335938 85.77539062 C281.55961976 82.08055813 281.55961976 82.08055813 280 79 C278.28134591 78.9064081 276.55884256 78.88255389 274.83764648 78.88647461 C273.18604774 78.88658791 273.18604774 78.88658791 271.50108337 78.88670349 C269.70423851 78.89444542 269.70423851 78.89444542 267.87109375 78.90234375 C266.65172623 78.9037587 265.4323587 78.90517365 264.17604065 78.90663147 C260.2631693 78.91225033 256.35035419 78.92480604 252.4375 78.9375 C249.79231853 78.94251257 247.14713617 78.9470759 244.50195312 78.95117188 C238.00128274 78.96222589 231.50064539 78.97898236 225 79 C225.00523682 78.00556885 225.01047363 77.0111377 225.01586914 75.98657227 C225.03392041 72.30966079 225.04543246 68.63275325 225.05493164 64.95581055 C225.05997157 63.36205386 225.0668035 61.76830181 225.07543945 60.17456055 C225.08751999 57.88849747 225.09323155 55.60249533 225.09765625 53.31640625 C225.10281754 52.59973282 225.10797882 51.88305939 225.11329651 51.14466858 C225.11349263 49.42936328 225.06192007 47.71418734 225 46 C223.27614337 44.27614337 221.07036377 44.87506308 218.77182341 44.86625659 C217.63911347 44.86960268 217.63911347 44.86960268 216.48352051 44.87301636 C215.68707894 44.87145637 214.89063737 44.86989638 214.07006121 44.86828911 C211.38067345 44.86427586 208.69134138 44.86747 206.00195312 44.87060547 C204.08226997 44.86925157 202.16258707 44.86747171 200.24290466 44.86529541 C195.01371822 44.8607197 189.78455141 44.8625112 184.55536461 44.8656745 C179.09586914 44.86819739 173.63637541 44.86586076 168.17687988 44.86428833 C159.00675147 44.86246643 149.8366311 44.86487349 140.66650391 44.86962891 C130.04817641 44.87507156 119.42986811 44.87330892 108.81154108 44.8678025 C99.71264052 44.86327196 90.61374575 44.86262053 81.51484442 44.86524117 C76.07268299 44.86680427 70.6305306 44.86699681 65.18836975 44.86370468 C60.07326924 44.86082682 54.95819359 44.86280008 49.84309578 44.86859894 C47.96004846 44.869927 46.07699907 44.86953165 44.19395256 44.86733627 C41.63476611 44.86462655 39.0756607 44.86800369 36.51647949 44.87301636 C35.76133954 44.87078564 35.00619958 44.86855491 34.22817659 44.86625659 C30.82674643 44.57560322 30.82674643 44.57560322 28 46 Z " fill="#F9F9F9" transform="translate(0,0)"/>
<path d="M0 0 C61.38 0 122.76 0 186 0 C186 21.16450119 186 21.16450119 179.3508606 27.87982178 C178.36159481 28.78275519 177.37148473 29.68476428 176.38061523 30.5859375 C175.34348728 31.5979843 174.31063619 32.61442928 173.28172302 33.63482666 C171.07507067 35.80543356 168.84232773 37.94298692 166.58318901 40.05889893 C162.99835867 43.417719 159.48573709 46.84634316 155.97926331 50.28662109 C149.78483307 56.34681658 143.53505408 62.34720833 137.27044678 68.3347168 C127.85853512 77.33040822 118.48653895 86.36684954 109.17611271 95.46756172 C106.26076352 98.31354319 103.33300346 101.14377571 100.37087822 103.94110107 C82.8711001 120.22569611 82.8711001 120.22569611 73.51916695 141.86883545 C72.59652036 145.65627168 71.27718032 149.3198488 70 153 C69.401875 152.690625 68.80375 152.38125 68.1875 152.0625 C62.40192482 149.25236349 56.59977651 149.77755749 50.28588867 149.75976562 C48.20515627 149.75008217 46.12542168 149.71905634 44.04492188 149.6875 C42.71094333 149.68096693 41.37695776 149.67571765 40.04296875 149.671875 C38.23348755 149.65785645 38.23348755 149.65785645 36.38745117 149.64355469 C32.60253964 150.04182286 30.20302228 150.96385475 27 153 C25.81552068 156.55343796 25.87044213 159.40277884 25.8671875 163.15234375 C25.86623077 163.84888565 25.86527405 164.54542755 25.86428833 165.26307678 C25.8636085 166.73487437 25.86544905 168.20667498 25.86962891 169.6784668 C25.87497191 171.92568745 25.86968147 174.1727075 25.86328125 176.41992188 C25.86394222 177.85156294 25.86522379 179.28320388 25.8671875 180.71484375 C25.86831543 182.01542725 25.86944336 183.31601074 25.87060547 184.65600586 C25.96676001 188.43615977 25.96676001 188.43615977 27 192 C30.7121551 193.23738503 34.19323111 193.20079962 38.0625 193.23828125 C38.85019775 193.246353 39.63789551 193.25442474 40.44946289 193.26274109 C42.11374727 193.27655861 43.77805971 193.28729118 45.44238281 193.29516602 C47.99077431 193.31243747 50.53788742 193.35634843 53.0859375 193.40039062 C54.70311547 193.41051301 56.32030444 193.41903053 57.9375 193.42578125 C58.70006104 193.44328934 59.46262207 193.46079742 60.24829102 193.47883606 C64.50797003 193.47591209 64.50797003 193.47591209 67.9609375 191.20776367 C69.37901642 188.19467917 69.68323891 185.29431532 70 182 C76.2650392 179.74914983 82.5323604 177.50644639 88.8203125 175.3203125 C89.65723633 175.02906494 90.49416016 174.73781738 91.35644531 174.43774414 C92.96719733 173.87797815 94.5784764 173.31972498 96.19042969 172.76342773 C97.78623808 172.20858605 99.37730129 171.63993109 100.96363831 171.05856323 C103.11862329 170.30727333 105.29941056 169.62825581 107.49357605 169.00053406 C119.5141201 165.35178247 126.72959362 158.61203486 135.30859375 149.703125 C136.69366457 148.30189627 138.08091994 146.9028239 139.4702301 145.50579834 C143.08462594 141.85921788 146.66756325 138.18321963 150.24475098 134.50018311 C153.90945095 130.73949464 157.60615956 127.01053353 161.29882812 123.27734375 C166.66689983 117.83817234 172.02727282 112.39163987 177.35717773 106.91503906 C177.91754227 106.34255936 178.4779068 105.77007965 179.05525208 105.18025208 C181.86638068 102.34243708 181.86638068 102.34243708 184 99 C184.66 99 185.32 99 186 99 C186 141.57 186 184.14 186 228 C124.62 228 63.24 228 0 228 C0 152.76 0 77.52 0 0 Z " fill="#FDFDFD" transform="translate(90,84)"/>
<path d="M0 0 C61.05 0 122.1 0 185 0 C185 9.24 185 18.48 185 28 C118.67 28.495 118.67 28.495 51 29 C50.67 31.31 50.34 33.62 50 36 C49.35973877 36.00410889 48.71947754 36.00821777 48.05981445 36.01245117 C45.14312095 36.04546038 42.22849616 36.11611026 39.3125 36.1875 C38.30509766 36.19330078 37.29769531 36.19910156 36.25976562 36.20507812 C35.28330078 36.23408203 34.30683594 36.26308594 33.30078125 36.29296875 C32.40528564 36.3086792 31.50979004 36.32438965 30.5871582 36.34057617 C26.81660218 37.30162853 25.33104945 38.92177632 23 42 C22.26705356 45.48328812 22.26705356 45.48328812 22.40625 49.3125 C22.40620972 50.00384033 22.40616943 50.69518066 22.40612793 51.4074707 C22.41146844 52.86321141 22.42898887 54.31895282 22.45800781 55.77441406 C22.49988192 57.9937415 22.49907168 60.21003129 22.4921875 62.4296875 C22.25647366 72.00847447 22.25647366 72.00847447 27 80 C28.70563778 80.15740605 30.41727244 80.25093392 32.12890625 80.31640625 C33.68061523 80.37924805 33.68061523 80.37924805 35.26367188 80.44335938 C36.35228516 80.48267578 37.44089844 80.52199219 38.5625 80.5625 C39.65498047 80.60568359 40.74746094 80.64886719 41.87304688 80.69335938 C44.58186768 80.79981958 47.29091651 80.90044807 50 81 C50 84.63 50 88.26 50 92 C48.61425781 92.04898438 47.22851562 92.09796875 45.80078125 92.1484375 C43.97133496 92.22349171 42.14190883 92.29903839 40.3125 92.375 C39.40048828 92.4059375 38.48847656 92.436875 37.54882812 92.46875 C31.02080752 92.6792494 31.02080752 92.6792494 25 95 C22.60027645 98.59958533 22.71011796 101.21405859 22.734375 105.37109375 C22.73246155 106.0898317 22.7305481 106.80856964 22.72857666 107.54908752 C22.72721683 109.06796621 22.7308992 110.5868566 22.73925781 112.10571289 C22.74994499 114.42556011 22.73936424 116.74463022 22.7265625 119.06445312 C22.72788444 120.54166837 22.73044754 122.01888313 22.734375 123.49609375 C22.73032654 124.18787216 22.72627808 124.87965057 22.72210693 125.59239197 C22.75708136 129.20227219 22.90475457 131.98773857 25 135 C27.51677113 136.25838557 29.41293288 136.20818973 32.2265625 136.31640625 C33.2578125 136.35830078 34.2890625 136.40019531 35.3515625 136.44335938 C36.43179688 136.48267578 37.51203125 136.52199219 38.625 136.5625 C40.25695312 136.62727539 40.25695312 136.62727539 41.921875 136.69335938 C44.6144257 136.79964427 47.30719576 136.90034504 50 137 C50 141.95 50 146.9 50 152 C47.57914063 152.03867187 47.57914063 152.03867187 45.109375 152.078125 C42.98955619 152.13440338 40.86976557 152.19175077 38.75 152.25 C37.68652344 152.26417969 36.62304688 152.27835938 35.52734375 152.29296875 C34.50253906 152.32519531 33.47773437 152.35742188 32.421875 152.390625 C31.47924805 152.41157227 30.53662109 152.43251953 29.56542969 152.45410156 C26.14122081 153.18273984 24.99864668 154.12763116 23 157 C22.62566345 159.63502833 22.48423939 161.84169727 22.5390625 164.46875 C22.53997894 165.186073 22.54089539 165.903396 22.5418396 166.64245605 C22.5478676 168.15542234 22.56358987 169.66837714 22.58837891 171.18115234 C22.62487857 173.4923111 22.62939815 175.80186436 22.62890625 178.11328125 C22.63873874 179.5859513 22.65039632 181.05861053 22.6640625 182.53125 C22.66628815 183.21989136 22.66851379 183.90853271 22.67080688 184.61804199 C22.74169039 188.21491815 22.93656974 190.98959367 25 194 C29.58264411 196.80201119 35.09655727 196.44741809 40.3125 196.625 C45.1078125 196.810625 45.1078125 196.810625 50 197 C50 206.9 50 216.8 50 227 C33.5 227 17 227 0 227 C0 152.09 0 77.18 0 0 Z " fill="#FEFEFE" transform="translate(34,51)"/>
<path d="M0 0 C3.42482707 1.61776117 5.65690522 3.42343244 8.328125 6.1328125 C9.12734375 6.93847656 9.9265625 7.74414062 10.75 8.57421875 C11.575 9.41597656 12.4 10.25773438 13.25 11.125 C14.09046875 11.97449219 14.9309375 12.82398438 15.796875 13.69921875 C17.86915683 15.79504923 19.93662393 17.89540713 22 20 C20.35465412 24.25104651 17.17795261 27.0667099 13.98974609 30.18969727 C13.0675956 31.10505753 13.0675956 31.10505753 12.1268158 32.03890991 C10.7937863 33.3609943 9.4584895 34.68079565 8.12119675 35.99856758 C6.00725141 38.08236147 3.90004362 40.17275395 1.79458618 42.26512146 C-4.19197467 48.21190962 -10.19118864 54.14587635 -16.19335938 60.0769043 C-19.86529108 63.70622682 -23.52996969 67.34274637 -27.19041061 70.98365593 C-28.58863006 72.37128101 -29.98975816 73.7559814 -31.39378738 75.13772774 C-33.35213293 77.06503065 -35.30123929 79.00124013 -37.24853516 80.93969727 C-37.83448959 81.51172379 -38.42044403 82.08375031 -39.02415466 82.67311096 C-42.30391816 85.73418277 -42.30391816 85.73418277 -43 90 C-37.82583168 89.65868032 -35.19994353 86.74864779 -31.75683594 83.22680664 C-31.15299072 82.62515182 -30.54914551 82.02349701 -29.92700195 81.40361023 C-27.93636051 79.41527768 -25.96036474 77.41304168 -23.984375 75.41015625 C-22.60466381 74.02552149 -21.22413871 72.64169729 -19.84283447 71.25865173 C-16.95195874 68.36013774 -14.06766689 65.45528723 -11.18847656 62.54516602 C-7.49238966 58.80944908 -3.78556207 55.08463362 -0.07445908 51.36383915 C3.45911685 47.82030418 6.98770384 44.27181979 10.515625 40.72265625 C11.19190193 40.04298357 11.86817886 39.36331089 12.56494904 38.66304207 C14.47085529 36.74559373 16.37322352 34.82471065 18.27441406 32.90258789 C18.84270935 32.3316037 19.41100464 31.76061951 19.996521 31.17233276 C22.84699946 28.34863649 22.84699946 28.34863649 25 25 C28.81360406 26.49820159 30.53926661 28.80001267 33 32 C21.03083088 44.18016108 9.03547254 56.33384202 -2.99105167 68.45736122 C-8.57559978 74.08815905 -14.15150315 79.72702628 -19.70727539 85.38623047 C-24.55425474 90.32340211 -29.41727621 95.24411462 -34.29957479 100.14637125 C-36.88015986 102.73860838 -39.45245309 105.33794523 -42.0056324 107.95720291 C-62.0769019 128.52784023 -62.0769019 128.52784023 -76 132 C-77.52982689 132.55428758 -79.05452328 133.12324583 -80.5703125 133.71484375 C-81.74335938 134.11832031 -82.91640625 134.52179688 -84.125 134.9375 C-85.32382813 135.35902344 -86.52265625 135.78054687 -87.7578125 136.21484375 C-91.1463666 137.03544541 -92.75669096 137.19826689 -96 136 C-98.52734375 134.25 -98.52734375 134.25 -100.9375 132 C-101.75089844 131.278125 -102.56429687 130.55625 -103.40234375 129.8125 C-105.20363968 126.6415145 -105.11769187 126.32007059 -104.2734375 122.98817444 C-104.07282211 122.18758165 -103.87220673 121.38698887 -103.66551208 120.5621357 C-103.4458931 119.71663092 -103.22627411 118.87112614 -103 118 C-102.8106337 117.16942518 -102.6212674 116.33885036 -102.42616272 115.48310661 C-98.10806768 97.29536947 -88.13308169 86.06306872 -75.00558472 73.48467565 C-72.33691332 70.91141996 -69.71219902 68.29399707 -67.08203125 65.6815033 C-62.12187172 60.76749506 -57.12485892 55.89290763 -52.11250114 51.03221554 C-46.39665515 45.4855289 -40.72464636 39.89486563 -35.05543709 34.300583 C-23.41749692 22.81836004 -11.72725607 11.39100271 0 0 Z " fill="#FDC308" transform="translate(268,118)"/>
<path d="M0 0 C0.99 0.495 0.99 0.495 2 1 C6.48292221 31.45771071 6.48292221 31.45771071 0.78814697 39.76855469 C-5.63611416 46.55239558 -14.93234784 50.11534979 -23.45605469 53.50732422 C-28.30959859 55.55159037 -32.56749614 58.16883424 -37 61 C-33.04 61.33 -29.08 61.66 -25 62 C-25.33 63.65 -25.66 65.3 -26 67 C-26.95084473 66.99045288 -26.95084473 66.99045288 -27.92089844 66.98071289 C-45.69513833 66.79526577 -45.69513833 66.79526577 -61 75 C-60.01 75.99 -59.02 76.98 -58 78 C-58.495 79.485 -58.495 79.485 -59 81 C-64.25105442 81.02464928 -69.50207545 81.04283568 -74.75317383 81.05493164 C-76.54094021 81.05997218 -78.32870245 81.06680454 -80.11645508 81.07543945 C-82.68051168 81.0875173 -85.24451397 81.09323094 -87.80859375 81.09765625 C-89.01484657 81.10539818 -89.01484657 81.10539818 -90.24546814 81.11329651 C-92.16401715 81.11349215 -94.08245368 81.06201983 -96 81 C-96.33 80.67 -96.66 80.34 -97 80 C-98.51928038 79.92820036 -100.04167482 79.91607993 -101.5625 79.9375 C-102.38878906 79.94652344 -103.21507812 79.95554687 -104.06640625 79.96484375 C-104.70449219 79.97644531 -105.34257812 79.98804688 -106 80 C-106.33 79.34 -106.66 78.68 -107 78 C-106.20529297 77.72849121 -105.41058594 77.45698242 -104.59179688 77.17724609 C-101.55681028 76.13907682 -98.52256929 75.09876087 -95.48876953 74.05712891 C-93.56466949 73.39718102 -91.63976999 72.73956539 -89.71484375 72.08203125 C-87.19828298 71.22190609 -84.69239833 70.34086664 -82.18688965 69.44799805 C-79.55376458 68.5179447 -76.94627184 67.69407116 -74.25964355 66.9140625 C-62.39847278 63.16702897 -55.37722434 56.70560268 -46.875 47.8515625 C-45.51003027 46.46789129 -44.14279828 45.08644852 -42.7734375 43.7071228 C-39.21303269 40.10893196 -35.68372507 36.48174368 -32.16052246 32.84716797 C-28.54495048 29.12843401 -24.90011932 25.43861265 -21.2578125 21.74609375 C-14.14331261 14.52504663 -7.06140074 7.27295493 0 0 Z " fill="#D3D5E7" transform="translate(272,186)"/>
<path d="M0 0 C1.60138494 -0.01654759 3.20269637 -0.04382244 4.80371094 -0.08203125 C7.11684327 -0.13692965 9.42824647 -0.15869153 11.74194336 -0.17333984 C12.45357132 -0.19600922 13.16519928 -0.21867859 13.89839172 -0.24203491 C17.58631271 -0.22643744 19.493225 0.27840928 22.55126953 2.38256836 C25.10631304 6.08815884 25.28920692 9.00513259 25.19116211 13.35400391 C25.19120239 14.11430405 25.19124268 14.87460419 25.19128418 15.65794373 C25.18594097 17.25910751 25.16840921 18.86027168 25.1394043 20.46118164 C25.09747898 22.90869394 25.0983439 25.35345795 25.10522461 27.80126953 C25.09473335 29.36053339 25.08179557 30.91978312 25.06616211 32.47900391 C25.06596069 33.20825577 25.06575928 33.93750763 25.06555176 34.68885803 C24.99313767 37.80300759 24.77395289 40.03045478 23.25561523 42.77954102 C19.84844694 46.006619 15.67059617 45.54122167 11.26147461 45.58837891 C10.54510834 45.59645065 9.82874207 45.6045224 9.09066772 45.61283875 C7.57601322 45.62665479 6.0613279 45.63738802 4.54663086 45.64526367 C3.00063939 45.65679365 1.45468805 45.67726187 -0.09106445 45.70678711 C-2.3279925 45.74951119 -4.56373976 45.76563714 -6.80102539 45.77587891 C-7.48764252 45.79338699 -8.17425964 45.81089508 -8.88168335 45.82893372 C-13.6626147 45.80743599 -16.04607099 44.72428043 -19.40258789 41.35009766 C-20.88292608 38.38942128 -20.60638118 35.36047845 -20.64086914 32.11181641 C-20.64894089 31.39403519 -20.65701263 30.67625397 -20.66532898 29.9367218 C-20.67916575 28.41609103 -20.68988974 26.89542925 -20.69775391 25.37475586 C-20.71494631 23.05668724 -20.7588297 20.74005296 -20.80297852 18.42236328 C-20.81310767 16.94385813 -20.82162308 15.46534087 -20.82836914 13.98681641 C-20.84587723 13.29706223 -20.86338531 12.60730804 -20.88142395 11.89665222 C-20.8599849 7.10511617 -19.78713151 4.71337713 -16.40258789 1.35009766 C-11.82292912 -0.93973173 -5.08663349 0.03853116 0 0 Z " fill="#242C89" transform="translate(135.402587890625,120.64990234375)"/>
<path d="M0 0 C2.24541575 -0.00968373 4.48990742 -0.0406952 6.73510742 -0.07226562 C8.16804471 -0.07879815 9.60098853 -0.08404764 11.03393555 -0.08789062 C12.98650269 -0.10190918 12.98650269 -0.10190918 14.97851562 -0.11621094 C19.65649123 0.36385123 22.17614138 1.96447146 25.4519043 5.24023438 C25.6884175 7.83434135 25.80416201 10.31832233 25.82299805 12.91601562 C25.83654076 14.05927559 25.83654076 14.05927559 25.85035706 15.22563171 C25.86487666 16.84040389 25.87375054 18.45523513 25.87744141 20.07006836 C25.88931118 22.53340885 25.93845024 24.99422192 25.98901367 27.45703125 C25.99848116 29.02668049 26.00571464 30.59634512 26.01049805 32.16601562 C26.03003036 32.89951736 26.04956268 33.6330191 26.06968689 34.38874817 C26.03698222 38.12263526 25.54516528 40.10466333 23.41503906 43.20117188 C19.7355329 45.73320083 16.80676809 45.98115585 12.4831543 45.93945312 C11.72522583 45.94660843 10.96729736 45.95376373 10.18640137 45.96113586 C8.58953014 45.96889415 6.99255239 45.96394016 5.39575195 45.94702148 C2.95800088 45.92778249 0.52594679 45.96720254 -1.91137695 46.01171875 C-3.46736991 46.01200912 -5.02336808 46.00886881 -6.5793457 46.00195312 C-7.66548157 46.02487679 -7.66548157 46.02487679 -8.77355957 46.04826355 C-12.80426024 45.95586119 -14.4357772 45.33782607 -17.50683594 42.66943359 C-19.9066329 38.63791246 -20.17956679 36.27790153 -20.17700195 31.61132812 C-20.18061989 30.54314598 -20.18061989 30.54314598 -20.18431091 29.4533844 C-20.18333654 27.95657754 -20.17004086 26.4597328 -20.14501953 24.96313477 C-20.11062835 22.679902 -20.12439644 20.40052892 -20.14379883 18.1171875 C-20.1369013 16.65688468 -20.12722975 15.19659177 -20.11450195 13.73632812 C-20.10362549 12.41818115 -20.09274902 11.10003418 -20.08154297 9.74194336 C-19.47108806 5.73473292 -18.38173695 4.0798349 -15.5480957 1.24023438 C-11.07472289 -0.99645203 -4.97601541 0.01300777 0 0 Z " fill="#222B88" transform="translate(134.548095703125,176.759765625)"/>
<path d="M0 0 C1.19893387 -0.00412399 2.39786774 -0.00824799 3.63313293 -0.01249695 C4.95015198 -0.00171112 6.26717102 0.00907471 7.62409973 0.02018738 C9.02353904 0.0210335 10.42297968 0.02055879 11.82241821 0.01885986 C15.62388854 0.01799791 19.4250758 0.03565584 23.22648025 0.05658174 C27.19830506 0.07531529 31.17013611 0.07709635 35.14199829 0.08065796 C42.66431253 0.08998821 50.18649622 0.1146152 57.70875293 0.14470643 C66.27212362 0.17821998 74.83550049 0.19472877 83.39892042 0.20979273 C101.01547882 0.24116395 118.6319078 0.29454661 136.24836731 0.36076355 C136.57836731 3.99076355 136.90836731 7.62076355 137.24836731 11.36076355 C92.36836731 11.69076355 47.48836731 12.02076355 1.24836731 12.36076355 C1.24836731 14.34076355 1.24836731 16.32076355 1.24836731 18.36076355 C-2.05163269 18.36076355 -5.35163269 18.36076355 -8.75163269 18.36076355 C-8.83260499 15.9225977 -8.89210241 13.48711971 -8.93913269 11.04826355 C-8.96426941 10.35797058 -8.98940613 9.66767761 -9.01530457 8.95646667 C-9.08922078 3.85624771 -9.08922078 3.85624771 -7.59279919 1.6599226 C-5.00185114 -0.16829533 -3.15719931 -0.00835975 0 0 Z " fill="#D2D4E6" transform="translate(81.75163269042969,67.63923645019531)"/>
<path d="M0 0 C3.81360406 1.49820159 5.53926661 3.80001267 8 7 C-4.17180661 19.28849477 -16.35779962 31.56271654 -28.56098557 43.82004642 C-34.2265273 49.51139389 -39.88728763 55.20735003 -45.53710938 60.91430664 C-50.46024923 65.8872089 -55.39205072 70.85132448 -60.33454823 75.80499071 C-62.95243439 78.42940776 -65.5657078 81.05807975 -68.16866302 83.69731331 C-71.0712872 86.64006377 -73.99307278 89.56302675 -76.91699219 92.48461914 C-78.21387466 93.80846619 -78.21387466 93.80846619 -79.53695679 95.15905762 C-80.33338593 95.94861343 -81.12981506 96.73816925 -81.95037842 97.551651 C-82.63987957 98.24576112 -83.32938072 98.93987123 -84.03977585 99.65501499 C-86 101 -86 101 -88.16716385 100.80536556 C-90 100 -90 100 -91.375 98.5625 C-93.62538002 96.39867306 -96.04092468 95.85484398 -99 95 C-98.13299356 89.19841823 -93.23041942 85.75881925 -89.25 81.8125 C-88.03183594 80.56436523 -88.03183594 80.56436523 -86.7890625 79.29101562 C-85.99757812 78.50017578 -85.20609375 77.70933594 -84.390625 76.89453125 C-83.66907227 76.17112549 -82.94751953 75.44771973 -82.20410156 74.70239258 C-79.73933693 72.7986704 -78.03423404 72.46729496 -75 72 C-73.29158997 70.28748321 -72.02098222 68.46712547 -70.625 66.49609375 C-69.820625 65.75552734 -69.820625 65.75552734 -69 65 C-68.27214294 65.08776703 -67.54428589 65.17553406 -66.79437256 65.26596069 C-62.57213012 64.86409927 -60.48945396 62.15430471 -57.66503906 59.24853516 C-56.74464088 58.33164162 -56.74464088 58.33164162 -55.8056488 57.39622498 C-53.78009358 55.37228493 -51.7729358 53.33108549 -49.765625 51.2890625 C-48.3637121 49.8803615 -46.9607638 48.47269021 -45.55682373 47.06600952 C-42.61737331 44.11587754 -39.6861277 41.15791986 -36.76123047 38.19335938 C-33.00631327 34.38752804 -29.23859806 30.59471253 -25.4656105 26.80680275 C-21.87419342 23.20061418 -18.288036 19.58921748 -14.703125 15.9765625 C-14.01577522 15.28430195 -13.32842545 14.5920414 -12.62024689 13.87880325 C-10.68309904 11.92542253 -8.74959553 9.96851496 -6.81738281 8.01025391 C-6.23973679 7.42834793 -5.66209076 6.84644196 -5.06694031 6.24690247 C-2.18231478 3.38753858 -2.18231478 3.38753858 0 0 Z " fill="#D3A620" transform="translate(293,143)"/>
<path d="M0 0 C0.72614502 0.00008057 1.45229004 0.00016113 2.20043945 0.00024414 C4.4150722 -0.00194063 6.62920561 -0.02008844 8.84375 -0.0390625 C10.245441 -0.04199669 11.64713437 -0.04398131 13.04882812 -0.04492188 C14.33072021 -0.04903076 15.6126123 -0.05313965 16.93334961 -0.05737305 C19.99023438 0.18554688 19.99023438 0.18554688 21.99023438 2.18554688 C23.46713602 9.70997209 20.76200962 16.32894187 17.98632812 23.18164062 C16.65755147 26.18541524 16.65755147 26.18541524 17.99023438 29.18554688 C19.31023437 29.18554688 20.63023437 29.18554688 21.99023438 29.18554688 C21.11523438 33.06054688 21.11523438 33.06054688 19.99023438 34.18554688 C17.71075646 34.28575617 15.42816303 34.31635991 13.14648438 34.31835938 C12.4621936 34.3193161 11.77790283 34.32027283 11.07287598 34.32125854 C9.6236156 34.32194017 8.17435219 34.3200871 6.72509766 34.31591797 C4.4996051 34.3105694 2.27431437 34.31586347 0.04882812 34.32226562 C-1.35612024 34.32160484 -2.76106848 34.32032367 -4.16601562 34.31835938 C-5.45314453 34.31723145 -6.74027344 34.31610352 -8.06640625 34.31494141 C-11.00976562 34.18554688 -11.00976562 34.18554688 -12.00976562 33.18554688 C-12.11054683 30.82156219 -12.14949778 28.48743376 -12.14257812 26.12304688 C-12.14353485 25.41656006 -12.14449158 24.71007324 -12.14547729 23.98217773 C-12.14615895 22.48583894 -12.14430567 20.9894972 -12.14013672 19.49316406 C-12.1347882 17.1952453 -12.14008213 14.89752201 -12.14648438 12.59960938 C-12.14582359 11.14908811 -12.14454242 9.69856696 -12.14257812 8.24804688 C-12.14460236 7.55638428 -12.14662659 6.86472168 -12.14871216 6.15209961 C-12.10737625 -2.20594195 -7.07500539 0.02483026 0 0 Z " fill="#82D589" transform="translate(133.009765625,238.814453125)"/>
<path d="M0 0 C4.14464249 1.40901365 6.91765108 4.64015409 9.96484375 7.66796875 C11.14841192 8.82554698 12.33200802 9.98309667 13.515625 11.140625 C16.01567282 13.60416642 18.51153825 16.07160922 20.98828125 18.55859375 C21.51341309 19.08485352 22.03854492 19.61111328 22.57958984 20.15332031 C25.16909055 22.98470247 26.35270984 24.9322581 26.21484375 28.73046875 C25.3806209 35.49323531 19.84292227 39.4273161 14.96484375 43.66796875 C7.84579148 37.86113656 1.49109563 31.30511431 -4.97265625 24.79296875 C-6.14494829 23.61565237 -7.31747239 22.43856701 -8.49023438 21.26171875 C-11.34122607 18.39979386 -14.1890524 15.53475418 -17.03515625 12.66796875 C-15.44885188 9.31067136 -13.69862685 7.09008241 -11.03515625 4.48046875 C-9.98328125 3.43826172 -9.98328125 3.43826172 -8.91015625 2.375 C-5.93408084 -0.33446866 -3.99790224 -0.69493188 0 0 Z " fill="#EF857E" transform="translate(305.03515625,87.33203125)"/>
<path d="M0 0 C0.72614502 0.00008057 1.45229004 0.00016113 2.20043945 0.00024414 C4.4150722 -0.00194063 6.62920561 -0.02008844 8.84375 -0.0390625 C10.245441 -0.04199669 11.64713437 -0.04398131 13.04882812 -0.04492188 C14.33072021 -0.04903076 15.6126123 -0.05313965 16.93334961 -0.05737305 C19.99023438 0.18554688 19.99023438 0.18554688 21.99023438 2.18554688 C22.26015344 4.87394072 22.07760794 7.47696624 21.99023438 10.18554688 C21.31605469 9.87746094 20.641875 9.569375 19.94726562 9.25195312 C16.36400531 9.17148361 15.95905988 9.75612403 13.43945312 12.15039062 C12.17000445 13.45971727 10.91655878 14.78470825 9.67773438 16.12304688 C9.03255859 16.79529297 8.38738281 17.46753906 7.72265625 18.16015625 C6.13090433 19.8226527 4.55476533 21.49747531 2.99023438 23.18554688 C1.00455729 21.62304688 -0.98111979 20.06054688 -2.96679688 18.49804688 C-5.02572562 16.91529005 -5.02572562 16.91529005 -8.00976562 17.18554688 C-6.63945457 22.83807996 -2.33287149 25.69690098 1.99023438 29.18554688 C6.95151822 26.63862826 10.41196627 22.95736565 14.24023438 18.99804688 C15.49326812 17.7107703 16.74836116 16.42549386 18.00585938 15.14257812 C18.55532227 14.57514893 19.10478516 14.00771973 19.67089844 13.4230957 C20.99023438 12.18554688 20.99023438 12.18554688 21.99023438 12.18554688 C22.07708725 15.47704812 22.13057333 18.76825647 22.17773438 22.06054688 C22.20287109 22.99769531 22.22800781 23.93484375 22.25390625 24.90039062 C22.26357422 25.79628906 22.27324219 26.6921875 22.28320312 27.61523438 C22.29891357 28.44265137 22.31462402 29.27006836 22.33081055 30.12255859 C22.16222534 31.14373779 22.16222534 31.14373779 21.99023438 32.18554688 C18.38705204 34.58766843 16.70629622 34.44302975 12.42382812 34.45117188 C11.13412109 34.45375 9.84441406 34.45632812 8.515625 34.45898438 C7.8450708 34.45479492 7.1745166 34.45060547 6.48364258 34.44628906 C4.43150382 34.43556657 2.38023689 34.44620323 0.328125 34.45898438 C-0.96029297 34.45640625 -2.24871094 34.45382813 -3.57617188 34.45117188 C-5.35423218 34.44778809 -5.35423218 34.44778809 -7.16821289 34.44433594 C-10.00976562 34.18554688 -10.00976562 34.18554688 -12.00976562 32.18554688 C-12.25268555 29.12866211 -12.25268555 29.12866211 -12.24023438 25.24414062 C-12.23977615 24.5612648 -12.23931793 23.87838898 -12.23884583 23.17481995 C-12.23582453 21.73151918 -12.22794185 20.28822165 -12.21557617 18.8449707 C-12.19730893 16.62830134 -12.19506655 14.4120493 -12.1953125 12.1953125 C-12.15348021 0.27583585 -11.91947665 0.04183229 0 0 Z " fill="#83D689" transform="translate(133.009765625,182.814453125)"/>
<path d="M0 0 C1.0374939 0.00303635 1.0374939 0.00303635 2.09594727 0.00613403 C2.80243408 0.00517731 3.5089209 0.00422058 4.23681641 0.00323486 C5.7331552 0.00255321 7.22949694 0.00440649 8.72583008 0.00857544 C11.02374884 0.01392396 13.32147213 0.00863003 15.61938477 0.00222778 C17.06990603 0.00288857 18.52042718 0.00416974 19.97094727 0.00613403 C20.66260986 0.0041098 21.35427246 0.00208557 22.06689453 0 C26.91849503 0.0239943 26.91849503 0.0239943 28.03344727 1.13894653 C28.17459888 3.80953504 28.07591834 6.46326891 28.03344727 9.13894653 C27.35926758 8.8308606 26.68508789 8.52277466 25.99047852 8.20535278 C22.4072182 8.12488326 22.00227277 8.70952369 19.48266602 11.10379028 C18.21321734 12.41311692 16.95977167 13.73810791 15.72094727 15.07644653 C14.75318359 16.08481567 14.75318359 16.08481567 13.76586914 17.11355591 C12.17411722 18.77605236 10.59797822 20.45087497 9.03344727 22.13894653 C8.57454102 21.7896106 8.11563477 21.44027466 7.64282227 21.08035278 C7.02922852 20.62531372 6.41563477 20.17027466 5.78344727 19.70144653 C5.18016602 19.2489856 4.57688477 18.79652466 3.95532227 18.33035278 C1.97051971 17.09993656 0.31357072 16.57781985 -1.96655273 16.13894653 C-0.59941221 21.15179512 2.76116866 25.23668132 7.03344727 28.13894653 C10.69072646 27.75554899 12.38881575 26.12722283 14.88891602 23.54129028 C15.59338867 22.82263794 16.29786133 22.1039856 17.02368164 21.36355591 C17.7487793 20.60880981 18.47387695 19.85406372 19.22094727 19.07644653 C20.67071053 17.5835582 22.12242402 16.09256038 23.57641602 14.60379028 C24.21603271 13.93984253 24.85564941 13.27589478 25.51464844 12.59182739 C27.03344727 11.13894653 27.03344727 11.13894653 28.03344727 11.13894653 C28.06232541 14.61809594 28.08020414 18.09721484 28.09594727 21.57644653 C28.10432617 22.56966919 28.11270508 23.56289185 28.12133789 24.58621216 C28.12456055 25.53045044 28.1277832 26.47468872 28.13110352 27.44754028 C28.13634033 28.32208862 28.14157715 29.19663696 28.14697266 30.09768677 C28.03344727 32.13894653 28.03344727 32.13894653 27.03344727 33.13894653 C24.66946258 33.23972773 22.33533415 33.27867869 19.97094727 33.27175903 C19.26446045 33.27271576 18.55797363 33.27367249 17.83007812 33.2746582 C16.33373933 33.27533986 14.8373976 33.27348658 13.34106445 33.26931763 C11.04314569 33.26396911 8.7454224 33.26926304 6.44750977 33.27566528 C4.9969885 33.2750045 3.54646735 33.27372333 2.09594727 33.27175903 C1.05845337 33.27479538 1.05845337 33.27479538 0 33.27789307 C-4.8516005 33.25389877 -4.8516005 33.25389877 -5.96655273 32.13894653 C-6.06676203 29.85946862 -6.09736577 27.57687519 -6.09936523 25.29519653 C-6.10032196 24.61090576 -6.10127869 23.92661499 -6.1022644 23.22158813 C-6.10294603 21.77232776 -6.10109296 20.32306435 -6.09692383 18.87380981 C-6.09157526 16.64831725 -6.09686933 14.42302652 -6.10327148 12.19754028 C-6.1026107 10.79259192 -6.10132953 9.38764368 -6.09936523 7.98269653 C-6.0982373 6.69556763 -6.09710938 5.40843872 -6.09594727 4.08230591 C-5.88492156 -0.71793175 -4.36708289 0.02159804 0 0 Z " fill="#82D589" transform="translate(126.966552734375,126.86105346679688)"/>
<path d="M0 0 C5.18134061 4.35259562 10.11761114 8.87606142 14.9375 13.625 C15.62134766 14.27984375 16.30519531 14.9346875 17.00976562 15.609375 C17.65494141 16.24617188 18.30011719 16.88296875 18.96484375 17.5390625 C19.5487085 18.10834473 20.13257324 18.67762695 20.73413086 19.26416016 C22 21 22 21 22 25 C22.9075 25.226875 23.815 25.45375 24.75 25.6875 C28.4792894 27.19355918 29.64425889 28.82999186 32 32 C31.43603516 32.19634033 30.87207031 32.39268066 30.29101562 32.5949707 C27.69367013 33.49984035 25.09683327 34.40616142 22.5 35.3125 C21.1696875 35.7755957 21.1696875 35.7755957 19.8125 36.24804688 C18.9359375 36.55419922 18.059375 36.86035156 17.15625 37.17578125 C16.28484375 37.47822754 15.4134375 37.78067383 14.515625 38.09228516 C12.19718875 38.92884824 9.9338868 39.85269435 7.65625 40.79296875 C3.97655477 42.00773993 2.53414072 42.43518405 -1 41 C-3.52734375 39.25 -3.52734375 39.25 -5.9375 37 C-6.75089844 36.278125 -7.56429687 35.55625 -8.40234375 34.8125 C-10.15782803 31.72216093 -10.18191981 31.24651249 -9.51171875 27.94140625 C-9.04375952 26.28369978 -8.53602347 24.63696531 -8 23 C-7.69280029 22.0497998 -7.38560059 21.09959961 -7.0690918 20.12060547 C-6.03998373 17.04591292 -4.96538494 13.99096313 -3.875 10.9375 C-3.50246094 9.88111328 -3.12992188 8.82472656 -2.74609375 7.73632812 C-1.83534623 5.15587683 -0.91990295 2.57719856 0 0 Z " fill="#FCFCFD" transform="translate(173,213)"/>
<path d="M0 0 C0.87454834 0.00523682 1.74909668 0.01047363 2.65014648 0.01586914 C3.50036377 0.0183667 4.35058105 0.02086426 5.2265625 0.0234375 C6.85742798 0.03709351 6.85742798 0.03709351 8.52124023 0.05102539 C11.96561523 0.07165039 15.40999023 0.09227539 18.95874023 0.11352539 C18.95874023 11.33352539 18.95874023 22.55352539 18.95874023 34.11352539 C13.79217773 34.14446289 13.79217773 34.14446289 8.52124023 34.17602539 C7.43399658 34.18512939 6.34675293 34.1942334 5.2265625 34.20361328 C3.95123657 34.20735962 3.95123657 34.20735962 2.65014648 34.21118164 C1.77559814 34.21641846 0.9010498 34.22165527 0 34.22705078 C-2.04125977 34.11352539 -2.04125977 34.11352539 -3.04125977 33.11352539 C-3.14204097 30.74954071 -3.18099192 28.41541228 -3.17407227 26.05102539 C-3.17502899 25.34453857 -3.17598572 24.63805176 -3.17697144 23.91015625 C-3.17765309 22.41381746 -3.17579981 20.91747572 -3.17163086 19.42114258 C-3.16628234 17.12322382 -3.17157627 14.82550053 -3.17797852 12.52758789 C-3.17731773 11.07706662 -3.17603656 9.62654548 -3.17407227 8.17602539 C-3.1760965 7.48436279 -3.17812073 6.7927002 -3.1802063 6.08007812 C-3.15100308 0.17524416 -3.15100308 0.17524416 0 0 Z " fill="#70B589" transform="translate(65.041259765625,207.886474609375)"/>
<path d="M0 0 C0.87454834 0.00523682 1.74909668 0.01047363 2.65014648 0.01586914 C3.50036377 0.0183667 4.35058105 0.02086426 5.2265625 0.0234375 C6.85742798 0.03709351 6.85742798 0.03709351 8.52124023 0.05102539 C11.96561523 0.07165039 15.40999023 0.09227539 18.95874023 0.11352539 C18.95874023 11.33352539 18.95874023 22.55352539 18.95874023 34.11352539 C13.79217773 34.14446289 13.79217773 34.14446289 8.52124023 34.17602539 C7.43399658 34.18512939 6.34675293 34.1942334 5.2265625 34.20361328 C3.95123657 34.20735962 3.95123657 34.20735962 2.65014648 34.21118164 C1.77559814 34.21641846 0.9010498 34.22165527 0 34.22705078 C-2.04125977 34.11352539 -2.04125977 34.11352539 -3.04125977 33.11352539 C-3.14204097 30.74954071 -3.18099192 28.41541228 -3.17407227 26.05102539 C-3.17502899 25.34453857 -3.17598572 24.63805176 -3.17697144 23.91015625 C-3.17765309 22.41381746 -3.17579981 20.91747572 -3.17163086 19.42114258 C-3.16628234 17.12322382 -3.17157627 14.82550053 -3.17797852 12.52758789 C-3.17731773 11.07706662 -3.17603656 9.62654548 -3.17407227 8.17602539 C-3.1760965 7.48436279 -3.17812073 6.7927002 -3.1802063 6.08007812 C-3.15100308 0.17524416 -3.15100308 0.17524416 0 0 Z " fill="#70B589" transform="translate(65.041259765625,148.886474609375)"/>
<path d="M0 0 C0.87454834 0.00523682 1.74909668 0.01047363 2.65014648 0.01586914 C3.50036377 0.0183667 4.35058105 0.02086426 5.2265625 0.0234375 C6.85742798 0.03709351 6.85742798 0.03709351 8.52124023 0.05102539 C11.96561523 0.07165039 15.40999023 0.09227539 18.95874023 0.11352539 C18.95874023 11.33352539 18.95874023 22.55352539 18.95874023 34.11352539 C15.69999023 34.13415039 12.44124023 34.15477539 9.08374023 34.17602539 C7.54484131 34.1896814 7.54484131 34.1896814 5.97485352 34.20361328 C5.16773926 34.20611084 4.360625 34.2086084 3.52905273 34.21118164 C2.28792725 34.21903687 2.28792725 34.21903687 1.02172852 34.22705078 C-1.04125977 34.11352539 -1.04125977 34.11352539 -3.04125977 33.11352539 C-3.06591369 28.57454834 -3.08409765 24.03560996 -3.09619141 19.49658203 C-3.10123116 17.95132773 -3.10806296 16.40607823 -3.11669922 14.86083984 C-3.12878053 12.6442751 -3.13449149 10.42777321 -3.13891602 8.21118164 C-3.1440773 7.51638199 -3.14923859 6.82158234 -3.15455627 6.10572815 C-3.15475253 4.44123209 -3.10315105 2.7768704 -3.04125977 1.11352539 C-2.04125977 0.11352539 -2.04125977 0.11352539 0 0 Z " fill="#71B589" transform="translate(65.041259765625,92.886474609375)"/>
<path d="M0 0 C7.11905227 5.80683219 13.47374812 12.36285444 19.9375 18.875 C21.10979204 20.05231638 22.28231614 21.22940174 23.45507812 22.40625 C26.30606982 25.26817489 29.15389615 28.13321457 32 31 C30.49053489 34.18086518 28.92058175 36.29869906 26.375 38.75 C25.74335938 39.36359375 25.11171875 39.9771875 24.4609375 40.609375 C23.73777344 41.29773438 23.73777344 41.29773438 23 42 C20.14220983 40.70280076 18.08991464 39.3363174 15.88378906 37.11083984 C15.30348938 36.5303891 14.7231897 35.94993835 14.12530518 35.35189819 C13.51161072 34.72788116 12.89791626 34.10386414 12.265625 33.4609375 C11.62759949 32.82008209 10.98957397 32.17922668 10.33221436 31.51895142 C8.30005931 29.47562179 6.27497782 27.42544018 4.25 25.375 C2.8715547 23.9865214 1.49265364 22.5984951 0.11328125 21.2109375 C-3.26311894 17.81251303 -6.63319288 14.40792746 -10 11 C-9.05052441 9.88322508 -8.09975103 8.76755346 -7.1484375 7.65234375 C-6.35445557 6.72023071 -6.35445557 6.72023071 -5.54443359 5.76928711 C-3.78334607 3.7518035 -1.93011408 1.85587892 0 0 Z " fill="#D6D7E7" transform="translate(283,103)"/>
<path d="M0 0 C0.495 0.99 0.495 0.99 1 2 C-5.93 5.96 -12.86 9.92 -20 14 C-19.01 14.99 -18.02 15.98 -17 17 C-17.495 18.485 -17.495 18.485 -18 20 C-23.25105442 20.02464928 -28.50207545 20.04283568 -33.75317383 20.05493164 C-35.54094021 20.05997218 -37.32870245 20.06680454 -39.11645508 20.07543945 C-41.68051168 20.0875173 -44.24451397 20.09323094 -46.80859375 20.09765625 C-48.01484657 20.10539818 -48.01484657 20.10539818 -49.24546814 20.11329651 C-51.16401715 20.11349215 -53.08245368 20.06201983 -55 20 C-55.33 19.67 -55.66 19.34 -56 19 C-57.51928038 18.92820036 -59.04167482 18.91607993 -60.5625 18.9375 C-61.80193359 18.95103516 -61.80193359 18.95103516 -63.06640625 18.96484375 C-63.70449219 18.97644531 -64.34257812 18.98804688 -65 19 C-65.33 18.34 -65.66 17.68 -66 17 C-65.22624023 16.73372803 -64.45248047 16.46745605 -63.65527344 16.19311523 C-61.33800807 15.395461 -59.02097113 14.59714299 -56.70410156 13.79833984 C-54.05125595 12.88421381 -51.39680843 11.97494624 -48.74121094 11.06884766 C-42.86536271 9.05906904 -37.00456854 7.03742912 -31.21875 4.77734375 C-20.47292207 0.62741517 -11.52008636 -0.94011067 0 0 Z " fill="#D2D4E6" transform="translate(231,247)"/>
<path d="M0 0 C0.02465622 4.25414623 0.04283899 8.50825498 0.05493164 12.76245117 C0.05997101 14.21070073 0.06680253 15.65894517 0.07543945 17.10717773 C0.08752247 19.18474588 0.09323211 21.26224697 0.09765625 23.33984375 C0.10551147 25.21724243 0.10551147 25.21724243 0.11352539 27.13256836 C0 30 0 30 -1 31 C-2.99964982 31.08758003 -5.0023611 31.10696576 -7.00390625 31.09765625 C-8.21884766 31.09443359 -9.43378906 31.09121094 -10.68554688 31.08789062 C-11.96494141 31.07951172 -13.24433594 31.07113281 -14.5625 31.0625 C-15.84576172 31.05798828 -17.12902344 31.05347656 -18.45117188 31.04882812 C-21.6341342 31.03699555 -24.81707274 31.01905944 -28 31 C-28 26.05 -28 21.1 -28 16 C-23.05 16 -18.1 16 -13 16 C-13 11.05 -13 6.1 -13 1 C-1.125 0 -1.125 0 0 0 Z " fill="#FFFFFF" transform="translate(28,74)"/>
<path d="M0 0 C4.95 0 9.9 0 15 0 C15 4.95 15 9.9 15 15 C19.95 15 24.9 15 30 15 C30 19.95 30 24.9 30 30 C25.05 30 20.1 30 15 30 C14.67 25.38 14.34 20.76 14 16 C7.07 15.505 7.07 15.505 0 15 C0 10.05 0 5.1 0 0 Z " fill="#FEFEFE" transform="translate(210,30)"/>
<path d="M0 0 C2.822052 -0.36076355 2.822052 -0.36076355 6.46923828 -0.34057617 C7.46454056 -0.34123329 7.46454056 -0.34123329 8.47994995 -0.34190369 C10.677035 -0.33981068 12.87336049 -0.31645699 15.0703125 -0.29296875 C16.5920266 -0.28737458 18.1137461 -0.28310364 19.63546753 -0.28010559 C23.64364499 -0.26864261 27.65149712 -0.2391633 31.6595459 -0.20599365 C35.74824624 -0.17532384 39.83699907 -0.16160689 43.92578125 -0.14648438 C51.95067025 -0.11429467 59.97529468 -0.06308116 68 0 C68 3 68 3 65.89494324 5.16188049 C62.47725884 7.33191004 60.6960466 7.47403001 56.6809082 7.40991211 C55.42643387 7.39927231 54.17195953 7.38863251 52.87947083 7.37767029 C51.51988638 7.34510358 50.16032316 7.31164015 48.80078125 7.27734375 C47.40026403 7.25503953 45.99972431 7.23410969 44.59916687 7.2144928 C41.67109073 7.16901351 38.74374964 7.10941363 35.81616211 7.03930664 C32.06015995 6.95015004 28.30447366 6.89248044 24.54774189 6.84479427 C21.65908619 6.80534239 18.77085101 6.75128877 15.88252831 6.69256783 C14.49708482 6.66579791 13.11155558 6.64314326 11.72597694 6.62464714 C9.79401855 6.59628168 7.86240853 6.5465875 5.9309082 6.49584961 C4.83124222 6.47268173 3.73157623 6.44951385 2.59858704 6.42564392 C1.74105331 6.28518143 0.88351959 6.14471893 0 6 C-0.66 5.01 -1.32 4.02 -2 3 C-1.34 2.01 -0.68 1.02 0 0 Z " fill="#D3D5E6" transform="translate(176,132)"/>
<path d="M0 0 C3.63 0 7.26 0 11 0 C11 10.89 11 21.78 11 33 C7.04 33 3.08 33 -1 33 C-1.02465392 28.46102295 -1.04283789 23.92208457 -1.05493164 19.38305664 C-1.0599714 17.83780234 -1.0668032 16.29255284 -1.07543945 14.74731445 C-1.08752076 12.53074971 -1.09323173 10.31424782 -1.09765625 8.09765625 C-1.10281754 7.4028566 -1.10797882 6.70805695 -1.11329651 5.99220276 C-1.11349277 4.3277067 -1.06189129 2.66334501 -1 1 C-0.67 0.67 -0.34 0.34 0 0 Z " fill="#84D989" transform="translate(63,93)"/>
<path d="M0 0 C3.3 0 6.6 0 10 0 C10.33 10.89 10.66 21.78 11 33 C7.04 33 3.08 33 -1 33 C-1.02465392 28.46102295 -1.04283789 23.92208457 -1.05493164 19.38305664 C-1.0599714 17.83780234 -1.0668032 16.29255284 -1.07543945 14.74731445 C-1.08752076 12.53074971 -1.09323173 10.31424782 -1.09765625 8.09765625 C-1.10281754 7.4028566 -1.10797882 6.70805695 -1.11329651 5.99220276 C-1.11349277 4.3277067 -1.06189129 2.66334501 -1 1 C-0.67 0.67 -0.34 0.34 0 0 Z " fill="#84D889" transform="translate(63,149)"/>
<path d="M0 0 C3.63 0 7.26 0 11 0 C11.33 10.56 11.66 21.12 12 32 C8.04 32 4.08 32 0 32 C0 21.44 0 10.88 0 0 Z " fill="#84D989" transform="translate(62,209)"/>
<path d="M0 0 C0.33 0 0.66 0 1 0 C1.33 45.54 1.66 91.08 2 138 C2.66 138 3.32 138 4 138 C4 142.95 4 147.9 4 153 C-0.95 153 -5.9 153 -11 153 C-11 149.37 -11 145.74 -11 142 C-7.7 142 -4.4 142 -1 142 C-0.67 95.14 -0.34 48.28 0 0 Z " fill="#E1E2EB" transform="translate(281,177)"/>
<path d="M0 0 C3.3 0 6.6 0 10 0 C10 9.24 10 18.48 10 28 C6.7 28 3.4 28 0 28 C0 18.76 0 9.52 0 0 Z " fill="#D3D5E6" transform="translate(73,249)"/>
<path d="M0 0 C2.66057516 -0.29200267 5.08499282 -0.39614056 7.74609375 -0.36328125 C8.89646873 -0.36402901 8.89646873 -0.36402901 10.07008362 -0.36479187 C11.69331449 -0.36244978 13.31654889 -0.35271326 14.93969727 -0.33618164 C17.42432166 -0.31262494 19.90787074 -0.31561478 22.39257812 -0.32226562 C23.9687564 -0.31668767 25.54493015 -0.30957705 27.12109375 -0.30078125 C27.86491806 -0.30169266 28.60874237 -0.30260406 29.37510681 -0.30354309 C33.11898231 -0.25212466 34.80614391 -0.1292374 38 2 C37.34 3.32 36.68 4.64 36 6 C30.90970056 6.0740421 25.81971308 6.12855008 20.72900391 6.16479492 C18.99652651 6.1799009 17.26408746 6.20038694 15.53173828 6.22631836 C13.04450022 6.26262321 10.55776674 6.27970765 8.0703125 6.29296875 C7.29317902 6.30845261 6.51604553 6.32393646 5.71536255 6.33988953 C3.53173828 6.34057617 3.53173828 6.34057617 0 6 C-0.66 5.01 -1.32 4.02 -2 3 C-1.34 2.01 -0.68 1.02 0 0 Z " fill="#D3D5E6" transform="translate(176,146)"/>
<path d="M0 0 C4.95 0 9.9 0 15 0 C15 4.95 15 9.9 15 15 C9.72 15 4.44 15 -1 15 C-0.67 10.05 -0.34 5.1 0 0 Z " fill="#FFFFFF" transform="translate(30,30)"/>
<path d="M0 0 C4.95 0 9.9 0 15 0 C15 4.95 15 9.9 15 15 C10.05 15 5.1 15 0 15 C0 10.05 0 5.1 0 0 Z " fill="#FFFFFF" transform="translate(345,345)"/>
<path d="M0 0 C4.95 0 9.9 0 15 0 C15 4.95 15 9.9 15 15 C10.05 15 5.1 15 0 15 C0 10.05 0 5.1 0 0 Z " fill="#EEEEEF" transform="translate(330,345)"/>
<path d="M0 0 C4.95 0 9.9 0 15 0 C15 4.95 15 9.9 15 15 C10.05 15 5.1 15 0 15 C0 10.05 0 5.1 0 0 Z " fill="#FFFFFF" transform="translate(315,345)"/>
<path d="M0 0 C4.95 0 9.9 0 15 0 C15 4.95 15 9.9 15 15 C10.05 15 5.1 15 0 15 C0 10.05 0 5.1 0 0 Z " fill="#EEEEEF" transform="translate(300,345)"/>
<path d="M0 0 C4.95 0 9.9 0 15 0 C15 4.95 15 9.9 15 15 C10.05 15 5.1 15 0 15 C0 10.05 0 5.1 0 0 Z " fill="#FFFFFF" transform="translate(285,345)"/>
<path d="M0 0 C4.95 0 9.9 0 15 0 C15 4.95 15 9.9 15 15 C10.05 15 5.1 15 0 15 C0 10.05 0 5.1 0 0 Z " fill="#EEEEEF" transform="translate(270,345)"/>
<path d="M0 0 C4.95 0 9.9 0 15 0 C15 4.95 15 9.9 15 15 C10.05 15 5.1 15 0 15 C0 10.05 0 5.1 0 0 Z " fill="#FFFFFF" transform="translate(255,345)"/>
<path d="M0 0 C4.95 0 9.9 0 15 0 C15 4.95 15 9.9 15 15 C10.05 15 5.1 15 0 15 C0 10.05 0 5.1 0 0 Z " fill="#EEEEEF" transform="translate(240,345)"/>
<path d="M0 0 C4.95 0 9.9 0 15 0 C15 4.95 15 9.9 15 15 C10.05 15 5.1 15 0 15 C0 10.05 0 5.1 0 0 Z " fill="#FFFFFF" transform="translate(225,345)"/>
<path d="M0 0 C4.95 0 9.9 0 15 0 C15 4.95 15 9.9 15 15 C10.05 15 5.1 15 0 15 C0 10.05 0 5.1 0 0 Z " fill="#EEEEEF" transform="translate(210,345)"/>
<path d="M0 0 C4.95 0 9.9 0 15 0 C15 4.95 15 9.9 15 15 C10.05 15 5.1 15 0 15 C0 10.05 0 5.1 0 0 Z " fill="#FFFFFF" transform="translate(195,345)"/>
<path d="M0 0 C4.95 0 9.9 0 15 0 C15 4.95 15 9.9 15 15 C10.05 15 5.1 15 0 15 C0 10.05 0 5.1 0 0 Z " fill="#EEEEEF" transform="translate(180,345)"/>
<path d="M0 0 C4.95 0 9.9 0 15 0 C15 4.95 15 9.9 15 15 C10.05 15 5.1 15 0 15 C0 10.05 0 5.1 0 0 Z " fill="#FFFFFF" transform="translate(165,345)"/>
<path d="M0 0 C4.95 0 9.9 0 15 0 C15 4.95 15 9.9 15 15 C10.05 15 5.1 15 0 15 C0 10.05 0 5.1 0 0 Z " fill="#EEEEEF" transform="translate(150,345)"/>
<path d="M0 0 C4.95 0 9.9 0 15 0 C15 4.95 15 9.9 15 15 C10.05 15 5.1 15 0 15 C0 10.05 0 5.1 0 0 Z " fill="#FFFFFF" transform="translate(135,345)"/>
<path d="M0 0 C4.95 0 9.9 0 15 0 C15 4.95 15 9.9 15 15 C10.05 15 5.1 15 0 15 C0 10.05 0 5.1 0 0 Z " fill="#EEEEEF" transform="translate(120,345)"/>
<path d="M0 0 C4.95 0 9.9 0 15 0 C15 4.95 15 9.9 15 15 C10.05 15 5.1 15 0 15 C0 10.05 0 5.1 0 0 Z " fill="#FFFFFF" transform="translate(105,345)"/>
<path d="M0 0 C4.95 0 9.9 0 15 0 C15 4.95 15 9.9 15 15 C10.05 15 5.1 15 0 15 C0 10.05 0 5.1 0 0 Z " fill="#EEEEEF" transform="translate(90,345)"/>
<path d="M0 0 C4.95 0 9.9 0 15 0 C15 4.95 15 9.9 15 15 C10.05 15 5.1 15 0 15 C0 10.05 0 5.1 0 0 Z " fill="#FFFFFF" transform="translate(75,345)"/>
<path d="M0 0 C4.95 0 9.9 0 15 0 C15 4.95 15 9.9 15 15 C10.05 15 5.1 15 0 15 C0 10.05 0 5.1 0 0 Z " fill="#EEEEEF" transform="translate(60,345)"/>
<path d="M0 0 C4.95 0 9.9 0 15 0 C15 4.95 15 9.9 15 15 C10.05 15 5.1 15 0 15 C0 10.05 0 5.1 0 0 Z " fill="#FFFFFF" transform="translate(45,345)"/>
<path d="M0 0 C4.95 0 9.9 0 15 0 C15 4.95 15 9.9 15 15 C10.05 15 5.1 15 0 15 C0 10.05 0 5.1 0 0 Z " fill="#EEEEEF" transform="translate(30,345)"/>
<path d="M0 0 C4.95 0 9.9 0 15 0 C15 4.95 15 9.9 15 15 C10.05 15 5.1 15 0 15 C0 10.05 0 5.1 0 0 Z " fill="#FFFFFF" transform="translate(15,345)"/>
<path d="M0 0 C4.95 0 9.9 0 15 0 C15 4.95 15 9.9 15 15 C10.05 15 5.1 15 0 15 C0 10.05 0 5.1 0 0 Z " fill="#EEEEEF" transform="translate(0,345)"/>
<path d="M0 0 C4.95 0 9.9 0 15 0 C15 4.95 15 9.9 15 15 C10.05 15 5.1 15 0 15 C0 10.05 0 5.1 0 0 Z " fill="#EEEEEF" transform="translate(345,330)"/>
<path d="M0 0 C4.95 0 9.9 0 15 0 C15 4.95 15 9.9 15 15 C10.05 15 5.1 15 0 15 C0 10.05 0 5.1 0 0 Z " fill="#FFFFFF" transform="translate(330,330)"/>
<path d="M0 0 C4.95 0 9.9 0 15 0 C15 4.95 15 9.9 15 15 C10.05 15 5.1 15 0 15 C0 10.05 0 5.1 0 0 Z " fill="#EEEEEF" transform="translate(315,330)"/>
<path d="M0 0 C4.95 0 9.9 0 15 0 C15 4.95 15 9.9 15 15 C10.05 15 5.1 15 0 15 C0 10.05 0 5.1 0 0 Z " fill="#FFFFFF" transform="translate(300,330)"/>
<path d="M0 0 C4.95 0 9.9 0 15 0 C15 4.95 15 9.9 15 15 C10.05 15 5.1 15 0 15 C0 10.05 0 5.1 0 0 Z " fill="#EEEEEF" transform="translate(285,330)"/>
<path d="M0 0 C4.95 0 9.9 0 15 0 C15 4.95 15 9.9 15 15 C10.05 15 5.1 15 0 15 C0 10.05 0 5.1 0 0 Z " fill="#FFFFFF" transform="translate(270,330)"/>
<path d="M0 0 C4.95 0 9.9 0 15 0 C15 4.95 15 9.9 15 15 C10.05 15 5.1 15 0 15 C0 10.05 0 5.1 0 0 Z " fill="#EEEEEF" transform="translate(255,330)"/>
<path d="M0 0 C4.95 0 9.9 0 15 0 C15 4.95 15 9.9 15 15 C10.05 15 5.1 15 0 15 C0 10.05 0 5.1 0 0 Z " fill="#FFFFFF" transform="translate(240,330)"/>
<path d="M0 0 C4.95 0 9.9 0 15 0 C15 4.95 15 9.9 15 15 C10.05 15 5.1 15 0 15 C0 10.05 0 5.1 0 0 Z " fill="#EEEEEF" transform="translate(225,330)"/>
<path d="M0 0 C4.95 0 9.9 0 15 0 C15 4.95 15 9.9 15 15 C10.05 15 5.1 15 0 15 C0 10.05 0 5.1 0 0 Z " fill="#FFFFFF" transform="translate(210,330)"/>
<path d="M0 0 C4.95 0 9.9 0 15 0 C15 4.95 15 9.9 15 15 C10.05 15 5.1 15 0 15 C0 10.05 0 5.1 0 0 Z " fill="#EEEEEF" transform="translate(195,330)"/>
<path d="M0 0 C4.95 0 9.9 0 15 0 C15 4.95 15 9.9 15 15 C10.05 15 5.1 15 0 15 C0 10.05 0 5.1 0 0 Z " fill="#FFFFFF" transform="translate(180,330)"/>
<path d="M0 0 C4.95 0 9.9 0 15 0 C15 4.95 15 9.9 15 15 C10.05 15 5.1 15 0 15 C0 10.05 0 5.1 0 0 Z " fill="#EEEEEF" transform="translate(165,330)"/>
<path d="M0 0 C4.95 0 9.9 0 15 0 C15 4.95 15 9.9 15 15 C10.05 15 5.1 15 0 15 C0 10.05 0 5.1 0 0 Z " fill="#FFFFFF" transform="translate(150,330)"/>
<path d="M0 0 C4.95 0 9.9 0 15 0 C15 4.95 15 9.9 15 15 C10.05 15 5.1 15 0 15 C0 10.05 0 5.1 0 0 Z " fill="#EEEEEF" transform="translate(135,330)"/>
<path d="M0 0 C4.95 0 9.9 0 15 0 C15 4.95 15 9.9 15 15 C10.05 15 5.1 15 0 15 C0 10.05 0 5.1 0 0 Z " fill="#FFFFFF" transform="translate(120,330)"/>
<path d="M0 0 C4.95 0 9.9 0 15 0 C15 4.95 15 9.9 15 15 C10.05 15 5.1 15 0 15 C0 10.05 0 5.1 0 0 Z " fill="#EEEEEF" transform="translate(105,330)"/>
<path d="M0 0 C4.95 0 9.9 0 15 0 C15 4.95 15 9.9 15 15 C10.05 15 5.1 15 0 15 C0 10.05 0 5.1 0 0 Z " fill="#FFFFFF" transform="translate(90,330)"/>
<path d="M0 0 C4.95 0 9.9 0 15 0 C15 4.95 15 9.9 15 15 C10.05 15 5.1 15 0 15 C0 10.05 0 5.1 0 0 Z " fill="#EEEEEF" transform="translate(75,330)"/>
<path d="M0 0 C4.95 0 9.9 0 15 0 C15 4.95 15 9.9 15 15 C10.05 15 5.1 15 0 15 C0 10.05 0 5.1 0 0 Z " fill="#FFFFFF" transform="translate(60,330)"/>
<path d="M0 0 C4.95 0 9.9 0 15 0 C15 4.95 15 9.9 15 15 C10.05 15 5.1 15 0 15 C0 10.05 0 5.1 0 0 Z " fill="#EEEEEF" transform="translate(45,330)"/>
<path d="M0 0 C4.95 0 9.9 0 15 0 C15 4.95 15 9.9 15 15 C10.05 15 5.1 15 0 15 C0 10.05 0 5.1 0 0 Z " fill="#FFFFFF" transform="translate(30,330)"/>
<path d="M0 0 C4.95 0 9.9 0 15 0 C15 4.95 15 9.9 15 15 C10.05 15 5.1 15 0 15 C0 10.05 0 5.1 0 0 Z " fill="#EEEEEF" transform="translate(15,330)"/>
<path d="M0 0 C4.95 0 9.9 0 15 0 C15 4.95 15 9.9 15 15 C10.05 15 5.1 15 0 15 C0 10.05 0 5.1 0 0 Z " fill="#FFFFFF" transform="translate(0,330)"/>
<path d="M0 0 C4.95 0 9.9 0 15 0 C15 4.95 15 9.9 15 15 C10.05 15 5.1 15 0 15 C0 10.05 0 5.1 0 0 Z " fill="#FFFFFF" transform="translate(345,315)"/>
<path d="M0 0 C4.95 0 9.9 0 15 0 C15 4.95 15 9.9 15 15 C10.05 15 5.1 15 0 15 C0 10.05 0 5.1 0 0 Z " fill="#EEEEEF" transform="translate(330,315)"/>
<path d="M0 0 C4.95 0 9.9 0 15 0 C15 4.95 15 9.9 15 15 C10.05 15 5.1 15 0 15 C0 10.05 0 5.1 0 0 Z " fill="#FFFFFF" transform="translate(315,315)"/>
<path d="M0 0 C4.95 0 9.9 0 15 0 C15 4.95 15 9.9 15 15 C10.05 15 5.1 15 0 15 C0 10.05 0 5.1 0 0 Z " fill="#EEEEEF" transform="translate(300,315)"/>
<path d="M0 0 C4.95 0 9.9 0 15 0 C15 4.95 15 9.9 15 15 C10.05 15 5.1 15 0 15 C0 10.05 0 5.1 0 0 Z " fill="#FFFFFF" transform="translate(285,315)"/>
<path d="M0 0 C4.95 0 9.9 0 15 0 C15 4.95 15 9.9 15 15 C10.05 15 5.1 15 0 15 C0 10.05 0 5.1 0 0 Z " fill="#EEEEEF" transform="translate(60,315)"/>
<path d="M0 0 C4.95 0 9.9 0 15 0 C15 4.95 15 9.9 15 15 C10.05 15 5.1 15 0 15 C0 10.05 0 5.1 0 0 Z " fill="#FFFFFF" transform="translate(45,315)"/>
<path d="M0 0 C4.95 0 9.9 0 15 0 C15 4.95 15 9.9 15 15 C10.05 15 5.1 15 0 15 C0 10.05 0 5.1 0 0 Z " fill="#EEEEEF" transform="translate(30,315)"/>
<path d="M0 0 C4.95 0 9.9 0 15 0 C15 4.95 15 9.9 15 15 C10.05 15 5.1 15 0 15 C0 10.05 0 5.1 0 0 Z " fill="#FFFFFF" transform="translate(15,315)"/>
<path d="M0 0 C4.95 0 9.9 0 15 0 C15 4.95 15 9.9 15 15 C10.05 15 5.1 15 0 15 C0 10.05 0 5.1 0 0 Z " fill="#EEEEEF" transform="translate(0,315)"/>
<path d="M0 0 C4.95 0 9.9 0 15 0 C15 4.95 15 9.9 15 15 C10.05 15 5.1 15 0 15 C0 10.05 0 5.1 0 0 Z " fill="#EEEEEF" transform="translate(345,300)"/>
<path d="M0 0 C4.95 0 9.9 0 15 0 C15 4.95 15 9.9 15 15 C10.05 15 5.1 15 0 15 C0 10.05 0 5.1 0 0 Z " fill="#FFFFFF" transform="translate(330,300)"/>
<path d="M0 0 C4.95 0 9.9 0 15 0 C15 4.95 15 9.9 15 15 C10.05 15 5.1 15 0 15 C0 10.05 0 5.1 0 0 Z " fill="#EEEEEF" transform="translate(315,300)"/>
<path d="M0 0 C4.95 0 9.9 0 15 0 C15 4.95 15 9.9 15 15 C10.05 15 5.1 15 0 15 C0 10.05 0 5.1 0 0 Z " fill="#FFFFFF" transform="translate(300,300)"/>
<path d="M0 0 C4.95 0 9.9 0 15 0 C15 4.95 15 9.9 15 15 C10.05 15 5.1 15 0 15 C0 10.05 0 5.1 0 0 Z " fill="#EEEEEF" transform="translate(285,300)"/>
<path d="M0 0 C4.95 0 9.9 0 15 0 C15 4.95 15 9.9 15 15 C10.05 15 5.1 15 0 15 C0 10.05 0 5.1 0 0 Z " fill="#FFFFFF" transform="translate(60,300)"/>
<path d="M0 0 C4.95 0 9.9 0 15 0 C15 4.95 15 9.9 15 15 C10.05 15 5.1 15 0 15 C0 10.05 0 5.1 0 0 Z " fill="#EEEEEF" transform="translate(45,300)"/>
<path d="M0 0 C4.95 0 9.9 0 15 0 C15 4.95 15 9.9 15 15 C10.05 15 5.1 15 0 15 C0 10.05 0 5.1 0 0 Z " fill="#FFFFFF" transform="translate(30,300)"/>
<path d="M0 0 C4.95 0 9.9 0 15 0 C15 4.95 15 9.9 15 15 C10.05 15 5.1 15 0 15 C0 10.05 0 5.1 0 0 Z " fill="#EEEEEF" transform="translate(15,300)"/>
<path d="M0 0 C4.95 0 9.9 0 15 0 C15 4.95 15 9.9 15 15 C10.05 15 5.1 15 0 15 C0 10.05 0 5.1 0 0 Z " fill="#FFFFFF" transform="translate(0,300)"/>
<path d="M0 0 C4.95 0 9.9 0 15 0 C15 4.95 15 9.9 15 15 C10.05 15 5.1 15 0 15 C0 10.05 0 5.1 0 0 Z " fill="#FFFFFF" transform="translate(345,285)"/>
<path d="M0 0 C4.95 0 9.9 0 15 0 C15 4.95 15 9.9 15 15 C10.05 15 5.1 15 0 15 C0 10.05 0 5.1 0 0 Z " fill="#EEEEEF" transform="translate(330,285)"/>
<path d="M0 0 C4.95 0 9.9 0 15 0 C15 4.95 15 9.9 15 15 C10.05 15 5.1 15 0 15 C0 10.05 0 5.1 0 0 Z " fill="#FFFFFF" transform="translate(315,285)"/>
<path d="M0 0 C4.95 0 9.9 0 15 0 C15 4.95 15 9.9 15 15 C10.05 15 5.1 15 0 15 C0 10.05 0 5.1 0 0 Z " fill="#EEEEEF" transform="translate(300,285)"/>
<path d="M0 0 C4.95 0 9.9 0 15 0 C15 4.95 15 9.9 15 15 C10.05 15 5.1 15 0 15 C0 10.05 0 5.1 0 0 Z " fill="#FFFFFF" transform="translate(285,285)"/>
<path d="M0 0 C4.95 0 9.9 0 15 0 C15 4.95 15 9.9 15 15 C10.05 15 5.1 15 0 15 C0 10.05 0 5.1 0 0 Z " fill="#FFFFFF" transform="translate(45,285)"/>
<path d="M0 0 C4.95 0 9.9 0 15 0 C15 4.95 15 9.9 15 15 C10.05 15 5.1 15 0 15 C0 10.05 0 5.1 0 0 Z " fill="#EEEEEF" transform="translate(0,285)"/>
<path d="M0 0 C4.95 0 9.9 0 15 0 C15 4.95 15 9.9 15 15 C10.05 15 5.1 15 0 15 C0 10.05 0 5.1 0 0 Z " fill="#EEEEEF" transform="translate(345,270)"/>
<path d="M0 0 C4.95 0 9.9 0 15 0 C15 4.95 15 9.9 15 15 C10.05 15 5.1 15 0 15 C0 10.05 0 5.1 0 0 Z " fill="#FFFFFF" transform="translate(330,270)"/>
<path d="M0 0 C4.95 0 9.9 0 15 0 C15 4.95 15 9.9 15 15 C10.05 15 5.1 15 0 15 C0 10.05 0 5.1 0 0 Z " fill="#EEEEEF" transform="translate(315,270)"/>
<path d="M0 0 C4.95 0 9.9 0 15 0 C15 4.95 15 9.9 15 15 C10.05 15 5.1 15 0 15 C0 10.05 0 5.1 0 0 Z " fill="#FFFFFF" transform="translate(300,270)"/>
<path d="M0 0 C4.95 0 9.9 0 15 0 C15 4.95 15 9.9 15 15 C10.05 15 5.1 15 0 15 C0 10.05 0 5.1 0 0 Z " fill="#EEEEEF" transform="translate(285,270)"/>
<path d="M0 0 C4.95 0 9.9 0 15 0 C15 4.95 15 9.9 15 15 C10.05 15 5.1 15 0 15 C0 10.05 0 5.1 0 0 Z " fill="#FFFFFF" transform="translate(0,270)"/>
<path d="M0 0 C4.95 0 9.9 0 15 0 C15 4.95 15 9.9 15 15 C10.05 15 5.1 15 0 15 C0 10.05 0 5.1 0 0 Z " fill="#FFFFFF" transform="translate(345,255)"/>
<path d="M0 0 C4.95 0 9.9 0 15 0 C15 4.95 15 9.9 15 15 C10.05 15 5.1 15 0 15 C0 10.05 0 5.1 0 0 Z " fill="#EEEEEF" transform="translate(330,255)"/>
<path d="M0 0 C4.95 0 9.9 0 15 0 C15 4.95 15 9.9 15 15 C10.05 15 5.1 15 0 15 C0 10.05 0 5.1 0 0 Z " fill="#FFFFFF" transform="translate(315,255)"/>
<path d="M0 0 C4.95 0 9.9 0 15 0 C15 4.95 15 9.9 15 15 C10.05 15 5.1 15 0 15 C0 10.05 0 5.1 0 0 Z " fill="#EEEEEF" transform="translate(300,255)"/>
<path d="M0 0 C4.95 0 9.9 0 15 0 C15 4.95 15 9.9 15 15 C10.05 15 5.1 15 0 15 C0 10.05 0 5.1 0 0 Z " fill="#FFFFFF" transform="translate(285,255)"/>
<path d="M0 0 C4.95 0 9.9 0 15 0 C15 4.95 15 9.9 15 15 C10.05 15 5.1 15 0 15 C0 10.05 0 5.1 0 0 Z " fill="#EEEEEF" transform="translate(0,255)"/>
<path d="M0 0 C4.95 0 9.9 0 15 0 C15 4.95 15 9.9 15 15 C10.05 15 5.1 15 0 15 C0 10.05 0 5.1 0 0 Z " fill="#EEEEEF" transform="translate(345,240)"/>
<path d="M0 0 C4.95 0 9.9 0 15 0 C15 4.95 15 9.9 15 15 C10.05 15 5.1 15 0 15 C0 10.05 0 5.1 0 0 Z " fill="#FFFFFF" transform="translate(330,240)"/>
<path d="M0 0 C4.95 0 9.9 0 15 0 C15 4.95 15 9.9 15 15 C10.05 15 5.1 15 0 15 C0 10.05 0 5.1 0 0 Z " fill="#EEEEEF" transform="translate(315,240)"/>
<path d="M0 0 C4.95 0 9.9 0 15 0 C15 4.95 15 9.9 15 15 C10.05 15 5.1 15 0 15 C0 10.05 0 5.1 0 0 Z " fill="#FFFFFF" transform="translate(300,240)"/>
<path d="M0 0 C4.95 0 9.9 0 15 0 C15 4.95 15 9.9 15 15 C10.05 15 5.1 15 0 15 C0 10.05 0 5.1 0 0 Z " fill="#EEEEEF" transform="translate(285,240)"/>
<path d="M0 0 C4.95 0 9.9 0 15 0 C15 4.95 15 9.9 15 15 C10.05 15 5.1 15 0 15 C0 10.05 0 5.1 0 0 Z " fill="#FFFFFF" transform="translate(0,240)"/>
<path d="M0 0 C4.95 0 9.9 0 15 0 C15 4.95 15 9.9 15 15 C10.05 15 5.1 15 0 15 C0 10.05 0 5.1 0 0 Z " fill="#FFFFFF" transform="translate(345,225)"/>
<path d="M0 0 C4.95 0 9.9 0 15 0 C15 4.95 15 9.9 15 15 C10.05 15 5.1 15 0 15 C0 10.05 0 5.1 0 0 Z " fill="#EEEEEF" transform="translate(330,225)"/>
<path d="M0 0 C4.95 0 9.9 0 15 0 C15 4.95 15 9.9 15 15 C10.05 15 5.1 15 0 15 C0 10.05 0 5.1 0 0 Z " fill="#FFFFFF" transform="translate(315,225)"/>
<path d="M0 0 C4.95 0 9.9 0 15 0 C15 4.95 15 9.9 15 15 C10.05 15 5.1 15 0 15 C0 10.05 0 5.1 0 0 Z " fill="#EEEEEF" transform="translate(300,225)"/>
<path d="M0 0 C4.95 0 9.9 0 15 0 C15 4.95 15 9.9 15 15 C10.05 15 5.1 15 0 15 C0 10.05 0 5.1 0 0 Z " fill="#FFFFFF" transform="translate(285,225)"/>
<path d="M0 0 C4.95 0 9.9 0 15 0 C15 4.95 15 9.9 15 15 C10.05 15 5.1 15 0 15 C0 10.05 0 5.1 0 0 Z " fill="#EEEEEF" transform="translate(0,225)"/>
<path d="M0 0 C4.95 0 9.9 0 15 0 C15 4.95 15 9.9 15 15 C10.05 15 5.1 15 0 15 C0 10.05 0 5.1 0 0 Z " fill="#EEEEEF" transform="translate(345,210)"/>
<path d="M0 0 C4.95 0 9.9 0 15 0 C15 4.95 15 9.9 15 15 C10.05 15 5.1 15 0 15 C0 10.05 0 5.1 0 0 Z " fill="#FFFFFF" transform="translate(330,210)"/>
<path d="M0 0 C4.95 0 9.9 0 15 0 C15 4.95 15 9.9 15 15 C10.05 15 5.1 15 0 15 C0 10.05 0 5.1 0 0 Z " fill="#EEEEEF" transform="translate(315,210)"/>
<path d="M0 0 C4.95 0 9.9 0 15 0 C15 4.95 15 9.9 15 15 C10.05 15 5.1 15 0 15 C0 10.05 0 5.1 0 0 Z " fill="#FFFFFF" transform="translate(300,210)"/>
<path d="M0 0 C4.95 0 9.9 0 15 0 C15 4.95 15 9.9 15 15 C10.05 15 5.1 15 0 15 C0 10.05 0 5.1 0 0 Z " fill="#EEEEEF" transform="translate(285,210)"/>
<path d="M0 0 C4.95 0 9.9 0 15 0 C15 4.95 15 9.9 15 15 C10.05 15 5.1 15 0 15 C0 10.05 0 5.1 0 0 Z " fill="#FFFFFF" transform="translate(0,210)"/>
<path d="M0 0 C4.95 0 9.9 0 15 0 C15 4.95 15 9.9 15 15 C10.05 15 5.1 15 0 15 C0 10.05 0 5.1 0 0 Z " fill="#FFFFFF" transform="translate(345,195)"/>
<path d="M0 0 C4.95 0 9.9 0 15 0 C15 4.95 15 9.9 15 15 C10.05 15 5.1 15 0 15 C0 10.05 0 5.1 0 0 Z " fill="#EEEEEF" transform="translate(330,195)"/>
<path d="M0 0 C4.95 0 9.9 0 15 0 C15 4.95 15 9.9 15 15 C10.05 15 5.1 15 0 15 C0 10.05 0 5.1 0 0 Z " fill="#FFFFFF" transform="translate(315,195)"/>
<path d="M0 0 C4.95 0 9.9 0 15 0 C15 4.95 15 9.9 15 15 C10.05 15 5.1 15 0 15 C0 10.05 0 5.1 0 0 Z " fill="#EEEEEF" transform="translate(300,195)"/>
<path d="M0 0 C4.95 0 9.9 0 15 0 C15 4.95 15 9.9 15 15 C10.05 15 5.1 15 0 15 C0 10.05 0 5.1 0 0 Z " fill="#FFFFFF" transform="translate(285,195)"/>
<path d="M0 0 C4.95 0 9.9 0 15 0 C15 4.95 15 9.9 15 15 C10.05 15 5.1 15 0 15 C0 10.05 0 5.1 0 0 Z " fill="#EEEEEF" transform="translate(0,195)"/>
<path d="M0 0 C4.95 0 9.9 0 15 0 C15 4.95 15 9.9 15 15 C10.05 15 5.1 15 0 15 C0 10.05 0 5.1 0 0 Z " fill="#EEEEEF" transform="translate(345,180)"/>
<path d="M0 0 C4.95 0 9.9 0 15 0 C15 4.95 15 9.9 15 15 C10.05 15 5.1 15 0 15 C0 10.05 0 5.1 0 0 Z " fill="#FFFFFF" transform="translate(330,180)"/>
<path d="M0 0 C4.95 0 9.9 0 15 0 C15 4.95 15 9.9 15 15 C10.05 15 5.1 15 0 15 C0 10.05 0 5.1 0 0 Z " fill="#EEEEEF" transform="translate(315,180)"/>
<path d="M0 0 C4.95 0 9.9 0 15 0 C15 4.95 15 9.9 15 15 C10.05 15 5.1 15 0 15 C0 10.05 0 5.1 0 0 Z " fill="#FFFFFF" transform="translate(300,180)"/>
<path d="M0 0 C4.95 0 9.9 0 15 0 C15 4.95 15 9.9 15 15 C10.05 15 5.1 15 0 15 C0 10.05 0 5.1 0 0 Z " fill="#EEEEEF" transform="translate(285,180)"/>
<path d="M0 0 C4.95 0 9.9 0 15 0 C15 4.95 15 9.9 15 15 C10.05 15 5.1 15 0 15 C0 10.05 0 5.1 0 0 Z " fill="#FFFFFF" transform="translate(0,180)"/>
<path d="M0 0 C4.95 0 9.9 0 15 0 C15 4.95 15 9.9 15 15 C10.05 15 5.1 15 0 15 C0 10.05 0 5.1 0 0 Z " fill="#FFFFFF" transform="translate(345,165)"/>
<path d="M0 0 C4.95 0 9.9 0 15 0 C15 4.95 15 9.9 15 15 C10.05 15 5.1 15 0 15 C0 10.05 0 5.1 0 0 Z " fill="#EEEEEF" transform="translate(330,165)"/>
<path d="M0 0 C4.95 0 9.9 0 15 0 C15 4.95 15 9.9 15 15 C10.05 15 5.1 15 0 15 C0 10.05 0 5.1 0 0 Z " fill="#FFFFFF" transform="translate(315,165)"/>
<path d="M0 0 C4.95 0 9.9 0 15 0 C15 4.95 15 9.9 15 15 C10.05 15 5.1 15 0 15 C0 10.05 0 5.1 0 0 Z " fill="#EEEEEF" transform="translate(300,165)"/>
<path d="M0 0 C4.95 0 9.9 0 15 0 C15 4.95 15 9.9 15 15 C10.05 15 5.1 15 0 15 C0 10.05 0 5.1 0 0 Z " fill="#EEEEEF" transform="translate(0,165)"/>
<path d="M0 0 C4.95 0 9.9 0 15 0 C15 4.95 15 9.9 15 15 C10.05 15 5.1 15 0 15 C0 10.05 0 5.1 0 0 Z " fill="#EEEEEF" transform="translate(345,150)"/>
<path d="M0 0 C4.95 0 9.9 0 15 0 C15 4.95 15 9.9 15 15 C10.05 15 5.1 15 0 15 C0 10.05 0 5.1 0 0 Z " fill="#FFFFFF" transform="translate(330,150)"/>
<path d="M0 0 C4.95 0 9.9 0 15 0 C15 4.95 15 9.9 15 15 C10.05 15 5.1 15 0 15 C0 10.05 0 5.1 0 0 Z " fill="#EEEEEF" transform="translate(315,150)"/>
<path d="M0 0 C4.95 0 9.9 0 15 0 C15 4.95 15 9.9 15 15 C10.05 15 5.1 15 0 15 C0 10.05 0 5.1 0 0 Z " fill="#FFFFFF" transform="translate(0,150)"/>
<path d="M0 0 C4.95 0 9.9 0 15 0 C15 4.95 15 9.9 15 15 C10.05 15 5.1 15 0 15 C0 10.05 0 5.1 0 0 Z " fill="#FFFFFF" transform="translate(345,135)"/>
<path d="M0 0 C4.95 0 9.9 0 15 0 C15 4.95 15 9.9 15 15 C10.05 15 5.1 15 0 15 C0 10.05 0 5.1 0 0 Z " fill="#EEEEEF" transform="translate(330,135)"/>
<path d="M0 0 C4.95 0 9.9 0 15 0 C15 4.95 15 9.9 15 15 C10.05 15 5.1 15 0 15 C0 10.05 0 5.1 0 0 Z " fill="#EEEEEF" transform="translate(0,135)"/>
<path d="M0 0 C4.95 0 9.9 0 15 0 C15 4.95 15 9.9 15 15 C10.05 15 5.1 15 0 15 C0 10.05 0 5.1 0 0 Z " fill="#EEEEEF" transform="translate(345,120)"/>
<path d="M0 0 C4.95 0 9.9 0 15 0 C15 4.95 15 9.9 15 15 C10.05 15 5.1 15 0 15 C0 10.05 0 5.1 0 0 Z " fill="#FFFFFF" transform="translate(0,120)"/>
<path d="M0 0 C4.95 0 9.9 0 15 0 C15 4.95 15 9.9 15 15 C10.05 15 5.1 15 0 15 C0 10.05 0 5.1 0 0 Z " fill="#FFFFFF" transform="translate(345,105)"/>
<path d="M0 0 C4.95 0 9.9 0 15 0 C15 4.95 15 9.9 15 15 C10.05 15 5.1 15 0 15 C0 10.05 0 5.1 0 0 Z " fill="#EEEEEF" transform="translate(0,105)"/>
<path d="M0 0 C4.95 0 9.9 0 15 0 C15 4.95 15 9.9 15 15 C10.05 15 5.1 15 0 15 C0 10.05 0 5.1 0 0 Z " fill="#EEEEEF" transform="translate(345,90)"/>
<path d="M0 0 C4.95 0 9.9 0 15 0 C15 4.95 15 9.9 15 15 C10.05 15 5.1 15 0 15 C0 10.05 0 5.1 0 0 Z " fill="#FFFFFF" transform="translate(0,90)"/>
<path d="M0 0 C4.95 0 9.9 0 15 0 C15 4.95 15 9.9 15 15 C10.05 15 5.1 15 0 15 C0 10.05 0 5.1 0 0 Z " fill="#FFFFFF" transform="translate(345,75)"/>
<path d="M0 0 C4.95 0 9.9 0 15 0 C15 4.95 15 9.9 15 15 C10.05 15 5.1 15 0 15 C0 10.05 0 5.1 0 0 Z " fill="#EEEEEF" transform="translate(0,75)"/>
<path d="M0 0 C4.95 0 9.9 0 15 0 C15 4.95 15 9.9 15 15 C10.05 15 5.1 15 0 15 C0 10.05 0 5.1 0 0 Z " fill="#EEEEEF" transform="translate(345,60)"/>
<path d="M0 0 C4.95 0 9.9 0 15 0 C15 4.95 15 9.9 15 15 C10.05 15 5.1 15 0 15 C0 10.05 0 5.1 0 0 Z " fill="#FFFFFF" transform="translate(330,60)"/>
<path d="M0 0 C4.95 0 9.9 0 15 0 C15 4.95 15 9.9 15 15 C10.05 15 5.1 15 0 15 C0 10.05 0 5.1 0 0 Z " fill="#FFFFFF" transform="translate(300,60)"/>
<path d="M0 0 C4.95 0 9.9 0 15 0 C15 4.95 15 9.9 15 15 C10.05 15 5.1 15 0 15 C0 10.05 0 5.1 0 0 Z " fill="#EEEEEF" transform="translate(285,60)"/>
<path d="M0 0 C4.95 0 9.9 0 15 0 C15 4.95 15 9.9 15 15 C10.05 15 5.1 15 0 15 C0 10.05 0 5.1 0 0 Z " fill="#FFFFFF" transform="translate(270,60)"/>
<path d="M0 0 C4.95 0 9.9 0 15 0 C15 4.95 15 9.9 15 15 C10.05 15 5.1 15 0 15 C0 10.05 0 5.1 0 0 Z " fill="#FFFFFF" transform="translate(240,60)"/>
<path d="M0 0 C4.95 0 9.9 0 15 0 C15 4.95 15 9.9 15 15 C10.05 15 5.1 15 0 15 C0 10.05 0 5.1 0 0 Z " fill="#FFFFFF" transform="translate(0,60)"/>
<path d="M0 0 C4.95 0 9.9 0 15 0 C15 4.95 15 9.9 15 15 C10.05 15 5.1 15 0 15 C0 10.05 0 5.1 0 0 Z " fill="#FFFFFF" transform="translate(345,45)"/>
<path d="M0 0 C4.95 0 9.9 0 15 0 C15 4.95 15 9.9 15 15 C10.05 15 5.1 15 0 15 C0 10.05 0 5.1 0 0 Z " fill="#EEEEEF" transform="translate(330,45)"/>
<path d="M0 0 C4.95 0 9.9 0 15 0 C15 4.95 15 9.9 15 15 C10.05 15 5.1 15 0 15 C0 10.05 0 5.1 0 0 Z " fill="#FFFFFF" transform="translate(315,45)"/>
<path d="M0 0 C4.95 0 9.9 0 15 0 C15 4.95 15 9.9 15 15 C10.05 15 5.1 15 0 15 C0 10.05 0 5.1 0 0 Z " fill="#EEEEEF" transform="translate(300,45)"/>
<path d="M0 0 C4.95 0 9.9 0 15 0 C15 4.95 15 9.9 15 15 C10.05 15 5.1 15 0 15 C0 10.05 0 5.1 0 0 Z " fill="#FFFFFF" transform="translate(285,45)"/>
<path d="M0 0 C4.95 0 9.9 0 15 0 C15 4.95 15 9.9 15 15 C10.05 15 5.1 15 0 15 C0 10.05 0 5.1 0 0 Z " fill="#EEEEEF" transform="translate(270,45)"/>
<path d="M0 0 C4.95 0 9.9 0 15 0 C15 4.95 15 9.9 15 15 C10.05 15 5.1 15 0 15 C0 10.05 0 5.1 0 0 Z " fill="#FFFFFF" transform="translate(255,45)"/>
<path d="M0 0 C4.95 0 9.9 0 15 0 C15 4.95 15 9.9 15 15 C10.05 15 5.1 15 0 15 C0 10.05 0 5.1 0 0 Z " fill="#EEEEEF" transform="translate(240,45)"/>
<path d="M0 0 C4.95 0 9.9 0 15 0 C15 4.95 15 9.9 15 15 C10.05 15 5.1 15 0 15 C0 10.05 0 5.1 0 0 Z " fill="#EEEEEF" transform="translate(345,30)"/>
<path d="M0 0 C4.95 0 9.9 0 15 0 C15 4.95 15 9.9 15 15 C10.05 15 5.1 15 0 15 C0 10.05 0 5.1 0 0 Z " fill="#FFFFFF" transform="translate(330,30)"/>
<path d="M0 0 C4.95 0 9.9 0 15 0 C15 4.95 15 9.9 15 15 C10.05 15 5.1 15 0 15 C0 10.05 0 5.1 0 0 Z " fill="#EEEEEF" transform="translate(315,30)"/>
<path d="M0 0 C4.95 0 9.9 0 15 0 C15 4.95 15 9.9 15 15 C10.05 15 5.1 15 0 15 C0 10.05 0 5.1 0 0 Z " fill="#FFFFFF" transform="translate(300,30)"/>
<path d="M0 0 C4.95 0 9.9 0 15 0 C15 4.95 15 9.9 15 15 C10.05 15 5.1 15 0 15 C0 10.05 0 5.1 0 0 Z " fill="#EEEEEF" transform="translate(285,30)"/>
<path d="M0 0 C4.95 0 9.9 0 15 0 C15 4.95 15 9.9 15 15 C10.05 15 5.1 15 0 15 C0 10.05 0 5.1 0 0 Z " fill="#FFFFFF" transform="translate(270,30)"/>
<path d="M0 0 C4.95 0 9.9 0 15 0 C15 4.95 15 9.9 15 15 C10.05 15 5.1 15 0 15 C0 10.05 0 5.1 0 0 Z " fill="#EEEEEF" transform="translate(255,30)"/>
<path d="M0 0 C4.95 0 9.9 0 15 0 C15 4.95 15 9.9 15 15 C10.05 15 5.1 15 0 15 C0 10.05 0 5.1 0 0 Z " fill="#FFFFFF" transform="translate(240,30)"/>
<path d="M0 0 C4.95 0 9.9 0 15 0 C15 4.95 15 9.9 15 15 C10.05 15 5.1 15 0 15 C0 10.05 0 5.1 0 0 Z " fill="#EEEEEF" transform="translate(225,30)"/>
<path d="M0 0 C4.95 0 9.9 0 15 0 C15 4.95 15 9.9 15 15 C10.05 15 5.1 15 0 15 C0 10.05 0 5.1 0 0 Z " fill="#EEEEEF" transform="translate(195,30)"/>
<path d="M0 0 C4.95 0 9.9 0 15 0 C15 4.95 15 9.9 15 15 C10.05 15 5.1 15 0 15 C0 10.05 0 5.1 0 0 Z " fill="#FFFFFF" transform="translate(180,30)"/>
<path d="M0 0 C4.95 0 9.9 0 15 0 C15 4.95 15 9.9 15 15 C10.05 15 5.1 15 0 15 C0 10.05 0 5.1 0 0 Z " fill="#EEEEEF" transform="translate(165,30)"/>
<path d="M0 0 C4.95 0 9.9 0 15 0 C15 4.95 15 9.9 15 15 C10.05 15 5.1 15 0 15 C0 10.05 0 5.1 0 0 Z " fill="#FFFFFF" transform="translate(150,30)"/>
<path d="M0 0 C4.95 0 9.9 0 15 0 C15 4.95 15 9.9 15 15 C10.05 15 5.1 15 0 15 C0 10.05 0 5.1 0 0 Z " fill="#EEEEEF" transform="translate(135,30)"/>
<path d="M0 0 C4.95 0 9.9 0 15 0 C15 4.95 15 9.9 15 15 C10.05 15 5.1 15 0 15 C0 10.05 0 5.1 0 0 Z " fill="#FFFFFF" transform="translate(120,30)"/>
<path d="M0 0 C4.95 0 9.9 0 15 0 C15 4.95 15 9.9 15 15 C10.05 15 5.1 15 0 15 C0 10.05 0 5.1 0 0 Z " fill="#EEEEEF" transform="translate(105,30)"/>
<path d="M0 0 C4.95 0 9.9 0 15 0 C15 4.95 15 9.9 15 15 C10.05 15 5.1 15 0 15 C0 10.05 0 5.1 0 0 Z " fill="#FFFFFF" transform="translate(90,30)"/>
<path d="M0 0 C4.95 0 9.9 0 15 0 C15 4.95 15 9.9 15 15 C10.05 15 5.1 15 0 15 C0 10.05 0 5.1 0 0 Z " fill="#EEEEEF" transform="translate(75,30)"/>
<path d="M0 0 C4.95 0 9.9 0 15 0 C15 4.95 15 9.9 15 15 C10.05 15 5.1 15 0 15 C0 10.05 0 5.1 0 0 Z " fill="#FFFFFF" transform="translate(60,30)"/>
<path d="M0 0 C4.95 0 9.9 0 15 0 C15 4.95 15 9.9 15 15 C10.05 15 5.1 15 0 15 C0 10.05 0 5.1 0 0 Z " fill="#EEEEEF" transform="translate(45,30)"/>
<path d="M0 0 C4.95 0 9.9 0 15 0 C15 4.95 15 9.9 15 15 C10.05 15 5.1 15 0 15 C0 10.05 0 5.1 0 0 Z " fill="#FFFFFF" transform="translate(0,30)"/>
<path d="M0 0 C4.95 0 9.9 0 15 0 C15 4.95 15 9.9 15 15 C10.05 15 5.1 15 0 15 C0 10.05 0 5.1 0 0 Z " fill="#FFFFFF" transform="translate(345,15)"/>
<path d="M0 0 C4.95 0 9.9 0 15 0 C15 4.95 15 9.9 15 15 C10.05 15 5.1 15 0 15 C0 10.05 0 5.1 0 0 Z " fill="#EEEEEF" transform="translate(330,15)"/>
<path d="M0 0 C4.95 0 9.9 0 15 0 C15 4.95 15 9.9 15 15 C10.05 15 5.1 15 0 15 C0 10.05 0 5.1 0 0 Z " fill="#FFFFFF" transform="translate(315,15)"/>
<path d="M0 0 C4.95 0 9.9 0 15 0 C15 4.95 15 9.9 15 15 C10.05 15 5.1 15 0 15 C0 10.05 0 5.1 0 0 Z " fill="#EEEEEF" transform="translate(300,15)"/>
<path d="M0 0 C4.95 0 9.9 0 15 0 C15 4.95 15 9.9 15 15 C10.05 15 5.1 15 0 15 C0 10.05 0 5.1 0 0 Z " fill="#FFFFFF" transform="translate(285,15)"/>
<path d="M0 0 C4.95 0 9.9 0 15 0 C15 4.95 15 9.9 15 15 C10.05 15 5.1 15 0 15 C0 10.05 0 5.1 0 0 Z " fill="#EEEEEF" transform="translate(270,15)"/>
<path d="M0 0 C4.95 0 9.9 0 15 0 C15 4.95 15 9.9 15 15 C10.05 15 5.1 15 0 15 C0 10.05 0 5.1 0 0 Z " fill="#FFFFFF" transform="translate(255,15)"/>
<path d="M0 0 C4.95 0 9.9 0 15 0 C15 4.95 15 9.9 15 15 C10.05 15 5.1 15 0 15 C0 10.05 0 5.1 0 0 Z " fill="#EEEEEF" transform="translate(240,15)"/>
<path d="M0 0 C4.95 0 9.9 0 15 0 C15 4.95 15 9.9 15 15 C10.05 15 5.1 15 0 15 C0 10.05 0 5.1 0 0 Z " fill="#FFFFFF" transform="translate(225,15)"/>
<path d="M0 0 C4.95 0 9.9 0 15 0 C15 4.95 15 9.9 15 15 C10.05 15 5.1 15 0 15 C0 10.05 0 5.1 0 0 Z " fill="#EEEEEF" transform="translate(210,15)"/>
<path d="M0 0 C4.95 0 9.9 0 15 0 C15 4.95 15 9.9 15 15 C10.05 15 5.1 15 0 15 C0 10.05 0 5.1 0 0 Z " fill="#FFFFFF" transform="translate(195,15)"/>
<path d="M0 0 C4.95 0 9.9 0 15 0 C15 4.95 15 9.9 15 15 C10.05 15 5.1 15 0 15 C0 10.05 0 5.1 0 0 Z " fill="#EEEEEF" transform="translate(180,15)"/>
<path d="M0 0 C4.95 0 9.9 0 15 0 C15 4.95 15 9.9 15 15 C10.05 15 5.1 15 0 15 C0 10.05 0 5.1 0 0 Z " fill="#FFFFFF" transform="translate(165,15)"/>
<path d="M0 0 C4.95 0 9.9 0 15 0 C15 4.95 15 9.9 15 15 C10.05 15 5.1 15 0 15 C0 10.05 0 5.1 0 0 Z " fill="#EEEEEF" transform="translate(150,15)"/>
<path d="M0 0 C4.95 0 9.9 0 15 0 C15 4.95 15 9.9 15 15 C10.05 15 5.1 15 0 15 C0 10.05 0 5.1 0 0 Z " fill="#FFFFFF" transform="translate(135,15)"/>
<path d="M0 0 C4.95 0 9.9 0 15 0 C15 4.95 15 9.9 15 15 C10.05 15 5.1 15 0 15 C0 10.05 0 5.1 0 0 Z " fill="#EEEEEF" transform="translate(120,15)"/>
<path d="M0 0 C4.95 0 9.9 0 15 0 C15 4.95 15 9.9 15 15 C10.05 15 5.1 15 0 15 C0 10.05 0 5.1 0 0 Z " fill="#FFFFFF" transform="translate(105,15)"/>
<path d="M0 0 C4.95 0 9.9 0 15 0 C15 4.95 15 9.9 15 15 C10.05 15 5.1 15 0 15 C0 10.05 0 5.1 0 0 Z " fill="#EEEEEF" transform="translate(90,15)"/>
<path d="M0 0 C4.95 0 9.9 0 15 0 C15 4.95 15 9.9 15 15 C10.05 15 5.1 15 0 15 C0 10.05 0 5.1 0 0 Z " fill="#FFFFFF" transform="translate(75,15)"/>
<path d="M0 0 C4.95 0 9.9 0 15 0 C15 4.95 15 9.9 15 15 C10.05 15 5.1 15 0 15 C0 10.05 0 5.1 0 0 Z " fill="#EEEEEF" transform="translate(60,15)"/>
<path d="M0 0 C4.95 0 9.9 0 15 0 C15 4.95 15 9.9 15 15 C10.05 15 5.1 15 0 15 C0 10.05 0 5.1 0 0 Z " fill="#FFFFFF" transform="translate(45,15)"/>
<path d="M0 0 C4.95 0 9.9 0 15 0 C15 4.95 15 9.9 15 15 C10.05 15 5.1 15 0 15 C0 10.05 0 5.1 0 0 Z " fill="#EEEEEF" transform="translate(30,15)"/>
<path d="M0 0 C4.95 0 9.9 0 15 0 C15 4.95 15 9.9 15 15 C10.05 15 5.1 15 0 15 C0 10.05 0 5.1 0 0 Z " fill="#FFFFFF" transform="translate(15,15)"/>
<path d="M0 0 C4.95 0 9.9 0 15 0 C15 4.95 15 9.9 15 15 C10.05 15 5.1 15 0 15 C0 10.05 0 5.1 0 0 Z " fill="#EEEEEF" transform="translate(0,15)"/>
<path d="M0 0 C4.95 0 9.9 0 15 0 C15 4.95 15 9.9 15 15 C10.05 15 5.1 15 0 15 C0 10.05 0 5.1 0 0 Z " fill="#EEEEEF" transform="translate(345,0)"/>
<path d="M0 0 C4.95 0 9.9 0 15 0 C15 4.95 15 9.9 15 15 C10.05 15 5.1 15 0 15 C0 10.05 0 5.1 0 0 Z " fill="#FFFFFF" transform="translate(330,0)"/>
<path d="M0 0 C4.95 0 9.9 0 15 0 C15 4.95 15 9.9 15 15 C10.05 15 5.1 15 0 15 C0 10.05 0 5.1 0 0 Z " fill="#EEEEEF" transform="translate(315,0)"/>
<path d="M0 0 C4.95 0 9.9 0 15 0 C15 4.95 15 9.9 15 15 C10.05 15 5.1 15 0 15 C0 10.05 0 5.1 0 0 Z " fill="#FFFFFF" transform="translate(300,0)"/>
<path d="M0 0 C4.95 0 9.9 0 15 0 C15 4.95 15 9.9 15 15 C10.05 15 5.1 15 0 15 C0 10.05 0 5.1 0 0 Z " fill="#EEEEEF" transform="translate(285,0)"/>
<path d="M0 0 C4.95 0 9.9 0 15 0 C15 4.95 15 9.9 15 15 C10.05 15 5.1 15 0 15 C0 10.05 0 5.1 0 0 Z " fill="#FFFFFF" transform="translate(270,0)"/>
<path d="M0 0 C4.95 0 9.9 0 15 0 C15 4.95 15 9.9 15 15 C10.05 15 5.1 15 0 15 C0 10.05 0 5.1 0 0 Z " fill="#EEEEEF" transform="translate(255,0)"/>
<path d="M0 0 C4.95 0 9.9 0 15 0 C15 4.95 15 9.9 15 15 C10.05 15 5.1 15 0 15 C0 10.05 0 5.1 0 0 Z " fill="#FFFFFF" transform="translate(240,0)"/>
<path d="M0 0 C4.95 0 9.9 0 15 0 C15 4.95 15 9.9 15 15 C10.05 15 5.1 15 0 15 C0 10.05 0 5.1 0 0 Z " fill="#EEEEEF" transform="translate(225,0)"/>
<path d="M0 0 C4.95 0 9.9 0 15 0 C15 4.95 15 9.9 15 15 C10.05 15 5.1 15 0 15 C0 10.05 0 5.1 0 0 Z " fill="#FFFFFF" transform="translate(210,0)"/>
<path d="M0 0 C4.95 0 9.9 0 15 0 C15 4.95 15 9.9 15 15 C10.05 15 5.1 15 0 15 C0 10.05 0 5.1 0 0 Z " fill="#EEEEEF" transform="translate(195,0)"/>
<path d="M0 0 C4.95 0 9.9 0 15 0 C15 4.95 15 9.9 15 15 C10.05 15 5.1 15 0 15 C0 10.05 0 5.1 0 0 Z " fill="#FFFFFF" transform="translate(180,0)"/>
<path d="M0 0 C4.95 0 9.9 0 15 0 C15 4.95 15 9.9 15 15 C10.05 15 5.1 15 0 15 C0 10.05 0 5.1 0 0 Z " fill="#EEEEEF" transform="translate(165,0)"/>
<path d="M0 0 C4.95 0 9.9 0 15 0 C15 4.95 15 9.9 15 15 C10.05 15 5.1 15 0 15 C0 10.05 0 5.1 0 0 Z " fill="#FFFFFF" transform="translate(150,0)"/>
<path d="M0 0 C4.95 0 9.9 0 15 0 C15 4.95 15 9.9 15 15 C10.05 15 5.1 15 0 15 C0 10.05 0 5.1 0 0 Z " fill="#EEEEEF" transform="translate(135,0)"/>
<path d="M0 0 C4.95 0 9.9 0 15 0 C15 4.95 15 9.9 15 15 C10.05 15 5.1 15 0 15 C0 10.05 0 5.1 0 0 Z " fill="#FFFFFF" transform="translate(120,0)"/>
<path d="M0 0 C4.95 0 9.9 0 15 0 C15 4.95 15 9.9 15 15 C10.05 15 5.1 15 0 15 C0 10.05 0 5.1 0 0 Z " fill="#EEEEEF" transform="translate(105,0)"/>
<path d="M0 0 C4.95 0 9.9 0 15 0 C15 4.95 15 9.9 15 15 C10.05 15 5.1 15 0 15 C0 10.05 0 5.1 0 0 Z " fill="#FFFFFF" transform="translate(90,0)"/>
<path d="M0 0 C4.95 0 9.9 0 15 0 C15 4.95 15 9.9 15 15 C10.05 15 5.1 15 0 15 C0 10.05 0 5.1 0 0 Z " fill="#EEEEEF" transform="translate(75,0)"/>
<path d="M0 0 C4.95 0 9.9 0 15 0 C15 4.95 15 9.9 15 15 C10.05 15 5.1 15 0 15 C0 10.05 0 5.1 0 0 Z " fill="#FFFFFF" transform="translate(60,0)"/>
<path d="M0 0 C4.95 0 9.9 0 15 0 C15 4.95 15 9.9 15 15 C10.05 15 5.1 15 0 15 C0 10.05 0 5.1 0 0 Z " fill="#EEEEEF" transform="translate(45,0)"/>
<path d="M0 0 C4.95 0 9.9 0 15 0 C15 4.95 15 9.9 15 15 C10.05 15 5.1 15 0 15 C0 10.05 0 5.1 0 0 Z " fill="#FFFFFF" transform="translate(30,0)"/>
<path d="M0 0 C4.95 0 9.9 0 15 0 C15 4.95 15 9.9 15 15 C10.05 15 5.1 15 0 15 C0 10.05 0 5.1 0 0 Z " fill="#FFFFFF" transform="translate(0,0)"/>
<path d="M0 0 C4.95 0 9.9 0 15 0 C15 4.62 15 9.24 15 14 C10.73840618 16.13079691 4.59236298 15.04502317 0 15 C0 10.05 0 5.1 0 0 Z " fill="#EEEEEF" transform="translate(15,30)"/>
<path d="M0 0 C4.95 0 9.9 0 15 0 C15 4.95 15 9.9 15 15 C10.05 15 5.1 15 0 15 C0 10.05 0 5.1 0 0 Z " fill="#EEEEEF" transform="translate(30,285)"/>
<path d="M0 0 C0 9.9 0 19.8 0 30 C-0.33 30 -0.66 30 -1 30 C-1 25.38 -1 20.76 -1 16 C-4.96 16 -8.92 16 -13 16 C-13 11.05 -13 6.1 -13 1 C-1.125 0 -1.125 0 0 0 Z " fill="#FFFFFF" transform="translate(28,224)"/>
<path d="M0 0 C4.95 0 9.9 0 15 0 C15 1.65 15 3.3 15 5 C16.65 5 18.3 5 20 5 C20 5.33 20 5.66 20 6 C19.443125 6.13535156 18.88625 6.27070312 18.3125 6.41015625 C11.1111071 8.44163026 6.41262625 12.18894531 1.4609375 17.71875 C0 19 0 19 -3 19 C-3 14.71 -3 10.42 -3 6 C-2.67 6 -2.34 6 -2 6 C-2 8.97 -2 11.94 -2 15 C-1.34 15 -0.68 15 0 15 C0 10.05 0 5.1 0 0 Z " fill="#FBFBFC" transform="translate(285,75)"/>
<path d="M0 0 C8.25 0 16.5 0 25 0 C25 0.33 25 0.66 25 1 C21.7 1 18.4 1 15 1 C15 4.63 15 8.26 15 12 C10.05 12 5.1 12 0 12 C0 8.04 0 4.08 0 0 Z " fill="#FFFFFF" transform="translate(255,318)"/>
<path d="M0 0 C6.93 0 13.86 0 21 0 C21 4.95 21 9.9 21 15 C13.74 15 6.48 15 -1 15 C-1 14.67 -1 14.34 -1 14 C2.63 14 6.26 14 10 14 C10 9.71 10 5.42 10 1 C6.7 1 3.4 1 0 1 C0 0.67 0 0.34 0 0 Z " fill="#CCCEE2" transform="translate(63,188)"/>
<path d="M0 0 C1.65 0.33 3.3 0.66 5 1 C5 5.95 5 10.9 5 16 C0.05 16 -4.9 16 -10 16 C-10.33 14.35 -10.66 12.7 -11 11 C-9.34637122 8.72853189 -7.87549441 7.03456284 -5.875 5.125 C-5.38773437 4.61453125 -4.90046875 4.1040625 -4.3984375 3.578125 C-2.9296875 2.1328125 -2.9296875 2.1328125 0 0 Z " fill="#FFFFFF" transform="translate(295,164)"/>
<path d="M0 0 C3.96 0 7.92 0 12 0 C12.33 4.95 12.66 9.9 13 15 C8.71 15 4.42 15 0 15 C0 10.05 0 5.1 0 0 Z " fill="#EEEEEF" transform="translate(15,270)"/>
<path d="M0 0 C3.96 0 7.92 0 12 0 C12 4.95 12 9.9 12 15 C8.04 15 4.08 15 0 15 C0 10.05 0 5.1 0 0 Z " fill="#EEEEEF" transform="translate(15,240)"/>
<path d="M0 0 C3.96 0 7.92 0 12 0 C12 4.95 12 9.9 12 15 C8.04 15 4.08 15 0 15 C0 10.05 0 5.1 0 0 Z " fill="#EEEEEF" transform="translate(15,210)"/>
<path d="M0 0 C3.96 0 7.92 0 12 0 C12 4.95 12 9.9 12 15 C8.04 15 4.08 15 0 15 C0 10.05 0 5.1 0 0 Z " fill="#EEEEEF" transform="translate(15,180)"/>
<path d="M0 0 C3.96 0 7.92 0 12 0 C12 4.95 12 9.9 12 15 C8.04 15 4.08 15 0 15 C0 10.05 0 5.1 0 0 Z " fill="#EEEEEF" transform="translate(15,150)"/>
<path d="M0 0 C3.96 0 7.92 0 12 0 C12 4.95 12 9.9 12 15 C8.04 15 4.08 15 0 15 C0 10.05 0 5.1 0 0 Z " fill="#EEEEEF" transform="translate(15,120)"/>
<path d="M0 0 C3.96 0 7.92 0 12 0 C12 4.95 12 9.9 12 15 C8.04 15 4.08 15 0 15 C0 10.05 0 5.1 0 0 Z " fill="#EEEEEF" transform="translate(15,90)"/>
<path d="M0 0 C3.96 0 7.92 0 12 0 C12 4.95 12 9.9 12 15 C8.04 15 4.08 15 0 15 C0 10.05 0 5.1 0 0 Z " fill="#EEEEEF" transform="translate(15,60)"/>
<path d="M0 0 C4.95 0 9.9 0 15 0 C15 3.63 15 7.26 15 11 C10.05 11 5.1 11 0 11 C0 7.37 0 3.74 0 0 Z " fill="#EEEEEF" transform="translate(240,319)"/>
<path d="M0 0 C4.95 0 9.9 0 15 0 C15 3.63 15 7.26 15 11 C10.05 11 5.1 11 0 11 C0 7.37 0 3.74 0 0 Z " fill="#EEEEEF" transform="translate(210,319)"/>
<path d="M0 0 C4.95 0 9.9 0 15 0 C15 3.63 15 7.26 15 11 C10.05 11 5.1 11 0 11 C0 7.37 0 3.74 0 0 Z " fill="#EEEEEF" transform="translate(180,319)"/>
<path d="M0 0 C4.95 0 9.9 0 15 0 C15 3.63 15 7.26 15 11 C10.05 11 5.1 11 0 11 C0 7.37 0 3.74 0 0 Z " fill="#EEEEEF" transform="translate(150,319)"/>
<path d="M0 0 C4.95 0 9.9 0 15 0 C15 3.63 15 7.26 15 11 C10.05 11 5.1 11 0 11 C0 7.37 0 3.74 0 0 Z " fill="#EEEEEF" transform="translate(120,319)"/>
<path d="M0 0 C4.95 0 9.9 0 15 0 C15 3.63 15 7.26 15 11 C10.05 11 5.1 11 0 11 C0 7.37 0 3.74 0 0 Z " fill="#EEEEEF" transform="translate(90,319)"/>
<path d="M0 0 C1.32 0.66 2.64 1.32 4 2 C3.11567347 7.65065635 -1.37556049 10.92845444 -5.25 14.8125 C-6.39662109 16.01422852 -6.39662109 16.01422852 -7.56640625 17.24023438 C-8.31277344 17.99240234 -9.05914062 18.74457031 -9.828125 19.51953125 C-10.5077832 20.21151611 -11.18744141 20.90350098 -11.88769531 21.61645508 C-14 23 -14 23 -16.76074219 22.7175293 C-17.49969727 22.48074463 -18.23865234 22.24395996 -19 22 C-18.44387545 18.11863416 -16.72326862 16.37243082 -13.96484375 13.671875 C-12.75151367 12.47304687 -12.75151367 12.47304687 -11.51367188 11.25 C-10.66353516 10.425 -9.81339844 9.6 -8.9375 8.75 C-8.08349609 7.90953125 -7.22949219 7.0690625 -6.34960938 6.203125 C-4.23964588 4.12852403 -2.12300292 2.06124168 0 0 Z " fill="#282D83" transform="translate(213,216)"/>
<path d="M0 0 C0 9.9 0 19.8 0 30 C-0.33 30 -0.66 30 -1 30 C-1 25.38 -1 20.76 -1 16 C-3.64 16 -6.28 16 -9 16 C-9 11.05 -9 6.1 -9 1 C-1.125 0 -1.125 0 0 0 Z " fill="#FFFFFF" transform="translate(84,284)"/>
<path d="M0 0 C3.63 0 7.26 0 11 0 C11 4.95 11 9.9 11 15 C8.03 15 5.06 15 2 15 C1.34 10.05 0.68 5.1 0 0 Z " fill="#EAEAED" transform="translate(334,105)"/>
<path d="M0 0 C1.34888732 0.00015905 2.69778075 0.00584927 4.04663086 0.01586914 C5.10991859 0.01799156 5.10991859 0.01799156 6.19468689 0.02015686 C8.46699173 0.02577096 10.73919936 0.03832576 13.01147461 0.05102539 C14.54858257 0.05603858 16.08569206 0.0606018 17.62280273 0.06469727 C21.39823103 0.07574497 25.17358632 0.09301898 28.94897461 0.11352539 C28.61897461 0.77352539 28.28897461 1.43352539 27.94897461 2.11352539 C13.09897461 1.61852539 13.09897461 1.61852539 -2.05102539 1.11352539 C-2.05102539 5.73352539 -2.05102539 10.35352539 -2.05102539 15.11352539 C-0.07102539 14.78352539 1.90897461 14.45352539 3.94897461 14.11352539 C2.99764648 14.61819336 2.99764648 14.61819336 2.02709961 15.13305664 C-0.92624942 17.94762047 -0.95292157 20.93187622 -1.30102539 24.80102539 C-1.54852539 27.21415039 -1.79602539 29.62727539 -2.05102539 32.11352539 C7.84897461 32.11352539 17.74897461 32.11352539 27.94897461 32.11352539 C27.94897461 32.44352539 27.94897461 32.77352539 27.94897461 33.11352539 C23.55241288 33.13818043 19.15588741 33.15636381 14.75927734 33.16845703 C13.26252543 33.1734966 11.76577845 33.18032826 10.26904297 33.18896484 C8.12197654 33.20104698 5.97497499 33.2067573 3.82788086 33.21118164 C1.88764038 33.21903687 1.88764038 33.21903687 -0.09179688 33.22705078 C-3.05102539 33.11352539 -3.05102539 33.11352539 -4.05102539 32.11352539 C-4.15123469 29.83404748 -4.18183842 27.55145404 -4.18383789 25.26977539 C-4.18479462 24.58548462 -4.18575134 23.90119385 -4.18673706 23.19616699 C-4.18741869 21.74690662 -4.18556562 20.29764321 -4.18139648 18.84838867 C-4.17604791 16.62289611 -4.18134199 14.39760538 -4.18774414 12.17211914 C-4.18708336 10.76717078 -4.18580219 9.36222254 -4.18383789 7.95727539 C-4.18270996 6.67014648 -4.18158203 5.38301758 -4.18041992 4.05688477 C-4.00863029 0.14915684 -4.00863029 0.14915684 0 0 Z " fill="#89E289" transform="translate(125.051025390625,126.886474609375)"/>
<path d="M0 0 C1.06486855 0.89301656 2.12675041 1.7895947 3.1875 2.6875 C3.77917969 3.18636719 4.37085938 3.68523437 4.98046875 4.19921875 C7.41846096 6.37313444 9.70663567 8.67494842 12 11 C9.75023648 11.64665663 7.50018033 12.29229523 5.25 12.9375 C3.99703125 13.29714844 2.7440625 13.65679687 1.453125 14.02734375 C-1.02561719 14.72554149 -3.49660162 15.39943726 -6 16 C-5.38304511 13.7058862 -4.75687956 11.41500322 -4.125 9.125 C-3.95097656 8.47402344 -3.77695313 7.82304687 -3.59765625 7.15234375 C-2.2265625 2.2265625 -2.2265625 2.2265625 0 0 Z " fill="#5860A2" transform="translate(163,245)"/>
<path d="M0 0 C0.495 0.99 0.495 0.99 1 2 C-5.53356157 6.87378748 -11.50326908 6.47508457 -19.4375 6.25 C-20.64599609 6.23195312 -21.85449219 6.21390625 -23.09960938 6.1953125 C-26.06723184 6.14839357 -29.03319661 6.08275602 -32 6 C-22.05476266 -0.63015822 -11.46040928 -0.48883262 0 0 Z " fill="#AEB1D3" transform="translate(231,247)"/>
<path d="M0 0 C4.95 0 9.9 0 15 0 C15 3.63 15 7.26 15 11 C12 11 12 11 9.75 9.5625 C6.48477671 7.70725949 3.70876808 7.36360471 0 7 C0 4.69 0 2.38 0 0 Z " fill="#E9EAED" transform="translate(300,75)"/>
<path d="M0 0 C2.64 0 5.28 0 8 0 C8 4.95 8 9.9 8 15 C5.36 15 2.72 15 0 15 C0 10.05 0 5.1 0 0 Z " fill="#EEEEEF" transform="translate(75,300)"/>
<path d="M0 0 C4.95 0 9.9 0 15 0 C15 4.95 15 9.9 15 15 C14.34 15 13.68 15 13 15 C12.67 16.32 12.34 17.64 12 19 C12.66 19.33 13.32 19.66 14 20 C13.01 20.66 12.02 21.32 11 22 C10.67 16.39 10.34 10.78 10 5 C-1.385 4.505 -1.385 4.505 -13 4 C-13 3.67 -13 3.34 -13 3 C-6.565 2.505 -6.565 2.505 0 2 C0 1.34 0 0.68 0 0 Z " fill="#E5E5EC" transform="translate(270,75)"/>
<path d="M0 0 C3.63 0 7.26 0 11 0 C10.67 3.3 10.34 6.6 10 10 C6.7 10 3.4 10 0 10 C0 6.7 0 3.4 0 0 Z " fill="#D1D3E6" transform="translate(73,132)"/>
<path d="M0 0 C0 0.99 0 1.98 0 3 C-11.22 3 -22.44 3 -34 3 C-27.8762895 -3.1237105 -8.50320614 -0.08676741 0 0 Z " fill="#D4D6E7" transform="translate(211,263)"/>
<path d="M0 0 C3.63 0 7.26 0 11 0 C11 3.63 11 7.26 11 11 C6.84641746 7.56530675 3.21124658 4.36729534 0 0 Z " fill="#EEEEEF" transform="translate(319,90)"/>
<path d="M0 0 C0.90105469 0.00902344 1.80210937 0.01804688 2.73046875 0.02734375 C3.41753906 0.03894531 4.10460937 0.05054688 4.8125 0.0625 C4.8125 3.0625 4.8125 3.0625 2.75 5.3125 C-0.1875 7.0625 -0.1875 7.0625 -3.875 7 C-7.1875 6.0625 -7.1875 6.0625 -9.1875 3.0625 C-7.31499103 -0.68251794 -3.72136574 -0.04832943 0 0 Z " fill="#D1D3E5" transform="translate(183.1875,187.9375)"/>
<path d="M0 0 C-2.84531332 2.84531332 -4.99436614 2.40618344 -8.9765625 2.6328125 C-9.66181 2.67437469 -10.3470575 2.71593689 -11.05307007 2.75875854 C-13.24330351 2.88958534 -15.43401842 3.00743748 -17.625 3.125 C-19.10942489 3.21138654 -20.593801 3.29861567 -22.078125 3.38671875 C-25.71823458 3.60092833 -29.35888625 3.80350748 -33 4 C-33 3.01 -33 2.02 -33 1 C-22.01480208 -0.27364614 -11.04098375 -0.10085216 0 0 Z " fill="#B8BBD8" transform="translate(208,261)"/>
<path d="M0 0 C6.93 0.495 6.93 0.495 14 1 C14 1.66 14 2.32 14 3 C18.62 3 23.24 3 28 3 C28 3.33 28 3.66 28 4 C18.43 4 8.86 4 -1 4 C-0.67 2.68 -0.34 1.36 0 0 Z " fill="#FFFFFF" transform="translate(226,74)"/>
<path d="M0 0 C0 0.66 0 1.32 0 2 C0.99 2.66 1.98 3.32 3 4 C-0.96 4 -4.92 4 -9 4 C-9 4.99 -9 5.98 -9 7 C-13.455 7.495 -13.455 7.495 -18 8 C-18.33 7.34 -18.66 6.68 -19 6 C-16.20964954 4.99619084 -13.41785145 3.9968055 -10.625 3 C-9.43390625 2.57074219 -9.43390625 2.57074219 -8.21875 2.1328125 C-7.45820313 1.86210937 -6.69765625 1.59140625 -5.9140625 1.3125 C-4.8614624 0.93544922 -4.8614624 0.93544922 -3.78759766 0.55078125 C-2 0 -2 0 0 0 Z " fill="#D0D2E3" transform="translate(184,258)"/>
<path d="M0 0 C0.99 0 1.98 0 3 0 C3 4.95 3 9.9 3 15 C2.01 15.33 1.02 15.66 0 16 C0 10.72 0 5.44 0 0 Z " fill="#FFFFFF" transform="translate(282,300)"/>
<path d="M0 0 C0 0.99 0 1.98 0 3 C-5.94 3.495 -5.94 3.495 -12 4 C-12 3.01 -12 2.02 -12 1 C-6.06 0.505 -6.06 0.505 0 0 Z " fill="#AFB2D4" transform="translate(187,261)"/>
<path d="M0 0 C2.22189824 2.22189824 2.92598892 4.08482708 4 7 C2.1875 8.0625 2.1875 8.0625 0 9 C-0.99 8.67 -1.98 8.34 -3 8 C-2.01 5.36 -1.02 2.72 0 0 Z " fill="#646BA9" transform="translate(160,252)"/>
<path d="M0 0 C2.4375 0.8125 2.4375 0.8125 5 2 C5.33 2.99 5.66 3.98 6 5 C5.01 5.99 4.02 6.98 3 8 C1.58622659 5.36095629 0.62759865 2.92879371 0 0 Z " fill="#535C9F" transform="translate(160,250)"/>
<path d="M0 0 C0 0.66 0 1.32 0 2 C-4.455 2.495 -4.455 2.495 -9 3 C-9.33 2.34 -9.66 1.68 -10 1 C-6.21812119 -0.83691257 -4.05431692 -1.15837626 0 0 Z " fill="#C6C8DE" transform="translate(175,263)"/>
<path d="M0 0 C1.32 0.66 2.64 1.32 4 2 C3.34 3.32 2.68 4.64 2 6 C0.68 5.34 -0.64 4.68 -2 4 C-1.33333333 2.66666667 -0.66666667 1.33333333 0 0 Z " fill="#DCDEE9" transform="translate(311,132)"/>
<path d="M0 0 C4.75 0.75 4.75 0.75 7 3 C4.36 3.33 1.72 3.66 -1 4 C-0.67 2.68 -0.34 1.36 0 0 Z " fill="#5F67A6" transform="translate(168,253)"/>
</svg>
